<svg width="120" height="24" viewBox="0 0 120 24" fill="none" xmlns="http://www.w3.org/2000/svg"> <path d="M47.1888 0.105652H41.8313L33.5797 23.5431H38.3203L40.2391 17.8228H48.7885L50.7105 23.5431H55.4511L47.1888 0.105652ZM41.4512 14.208L44.5051 5.10244L47.5738 14.208H41.4512Z" fill="#1F1F1F"></path> <path d="M71.727 15.0299C71.727 15.9718 71.5187 16.8211 71.1081 17.5537C70.6982 18.2859 70.106 18.8666 69.3485 19.28C68.5885 19.6948 67.6756 19.9055 66.6362 19.9055C65.5968 19.9055 64.6864 19.6953 63.9298 19.28C63.1754 18.8664 62.5832 18.2854 62.1696 17.5535C61.7552 16.8209 61.5452 15.9718 61.5452 15.0301V0.105835H57.1036V15.3812C57.1036 17.0566 57.5021 18.5528 58.2879 19.8279C59.0741 21.1026 60.1956 22.1099 61.6212 22.8224C63.0433 23.5334 64.7307 23.8943 66.636 23.8943C68.5336 23.8943 70.2173 23.5336 71.6396 22.8224C73.0647 22.1099 74.188 21.1026 74.9783 19.8279C75.7683 18.5526 76.1688 17.0566 76.1688 15.3812V0.105835H71.7268V15.0299H71.727Z" fill="#1F1F1F"></path> <path d="M91.3712 0.105652H86.0137L77.7629 23.5431H82.5033L84.4217 17.8228H92.9712L94.8932 23.5431H99.6338L91.3712 0.105652ZM85.6341 14.208L88.688 5.10244L91.7565 14.208H85.6341Z" fill="#1F1F1F"></path> <path d="M114.948 14.2949C115.059 14.2478 115.168 14.1984 115.275 14.1466C116.514 13.5459 117.467 12.68 118.107 11.5728C118.745 10.4683 119.069 9.14675 119.069 7.6445C119.069 6.15092 118.749 4.82234 118.119 3.69553C117.487 2.56568 116.544 1.67488 115.317 1.04773C114.092 0.422693 112.563 0.105835 110.771 0.105835H101.952V23.543H106.393V15.0475H110.478L115.037 23.543H120L114.948 14.2949ZM106.394 3.85631H110.125C111.153 3.85631 112.001 4.007 112.647 4.30416C113.285 4.59782 113.766 5.03045 114.076 5.5901C114.389 6.15514 114.548 6.84627 114.548 7.6445C114.548 8.44249 114.391 9.12191 114.082 9.66398C113.776 10.2009 113.298 10.6148 112.66 10.8934C112.014 11.1763 111.169 11.3195 110.148 11.3195H106.394V3.85631Z" fill="#1F1F1F"></path> <path fill-rule="evenodd" clip-rule="evenodd" d="M20.064 6.80302V0.107117H6.6959V6.80302H0V20.1951H6.6959V23.5431H23.436V6.80302H20.064ZM6.6959 6.80302H16.7399V16.847H6.6959V6.80302Z" fill="#1F1F1F"></path> </svg>
