<?xml version="1.0" encoding="UTF-8"?>
<svg version="1.1" xmlns="http://www.w3.org/2000/svg" width="800" height="800">
<path d="M0 0 C264 0 528 0 800 0 C800 264 800 528 800 800 C536 800 272 800 0 800 C0 536 0 272 0 0 Z " fill="#15734E" transform="translate(0,0)"/>
<path d="M0 0 C1.35671901 1.3095301 2.69461683 2.6392905 4 4 C-12.25714425 30.17654243 -12.25714425 30.17654243 -19 40 C-22.72041534 38.57168698 -26.24329341 36.89356706 -29.8125 35.125 C-48.00894437 26.78325921 -67.03097332 25.03094454 -86 32 C-104.43834062 39.6038456 -117.44910701 52.13369796 -126 70 C-133.12340541 87.78804397 -132.90967165 106.08321342 -125.4921875 123.7265625 C-118.42911127 138.80540897 -108.0357902 149.35310758 -93.5625 157.3125 C-92.97839355 157.63822998 -92.39428711 157.96395996 -91.79248047 158.29956055 C-82.38244299 163.23835308 -72.83634393 164.56173947 -62.3125 164.5 C-61.17345215 164.49427979 -60.0344043 164.48855957 -58.86083984 164.48266602 C-40.84437521 164.10322409 -25.68085033 157.35765075 -12.6015625 144.84375 C2.64608304 128.17665398 6.73024733 105.94494725 11.140625 84.4765625 C15.97043478 61.36799959 24.33743344 40.9163785 40 23 C40.57363281 22.29359375 41.14726562 21.5871875 41.73828125 20.859375 C58.4459205 0.60285772 85.52671649 -12.21528653 111.2109375 -15.68359375 C139.44060936 -18.04091686 168.39328585 -13.55056016 192 3 C191.43114198 7.10065232 190.12609319 9.74156719 187.83203125 13.16796875 C187.18556641 14.14443359 186.53910156 15.12089844 185.87304688 16.12695312 C185.19306641 17.13693359 184.51308594 18.14691406 183.8125 19.1875 C179.02831955 26.36143692 174.3583224 33.55773645 170 41 C167.03575847 39.84967832 164.19199423 38.64291351 161.3984375 37.125 C160.41423828 36.60679687 160.41423828 36.60679687 159.41015625 36.078125 C158.07165176 35.36905161 156.73810275 34.65052954 155.41015625 33.921875 C141.74925069 26.8128989 120.40294141 26.28683752 105.8203125 30.8359375 C95.10477487 35.25869403 86.14907261 40.62705177 78 49 C77.37867188 49.58910156 76.75734375 50.17820312 76.1171875 50.78515625 C72.01746392 54.96760968 69.37919092 59.69557827 66.75 64.875 C66.4204834 65.52283447 66.0909668 66.17066895 65.75146484 66.83813477 C61.15280128 76.31185216 59.50925065 84.85466999 59.625 95.375 C59.60759766 96.94507813 59.60759766 96.94507813 59.58984375 98.546875 C59.62858749 109.00768587 61.75047378 118.6891131 66.5625 128 C67.08130737 129.00945679 67.08130737 129.00945679 67.6105957 130.03930664 C76.37248112 146.42968959 90.35619278 157.36279438 108.046875 162.96484375 C124.65829467 167.36079261 140.59087077 165.19470372 156 158 C161.62084962 154.66262054 166.61155285 150.86287387 171 146 C171.75990234 145.29810547 171.75990234 145.29810547 172.53515625 144.58203125 C180.04925952 137.1021608 182.08848295 129.36875823 187 119 C164.89 119 142.78 119 120 119 C127.88352827 105.48538012 127.88352827 105.48538012 131.078125 100.5 C131.76390625 99.42878906 132.4496875 98.35757813 133.15625 97.25390625 C133.8471875 96.18011719 134.538125 95.10632813 135.25 94 C135.95640625 92.89527344 136.6628125 91.79054688 137.390625 90.65234375 C141.25223448 84.63320625 141.25223448 84.63320625 143 82 C143.35639053 81.29659485 143.71278107 80.5931897 144.07997131 79.86846924 C146.58084825 77.43474954 148.56374452 77.52738489 151.95785522 77.50231934 C152.76993439 77.51670044 153.58201355 77.53108154 154.41870117 77.54589844 C155.70682961 77.54502228 155.70682961 77.54502228 157.02098083 77.54412842 C159.86205338 77.5469172 162.7020793 77.57804633 165.54296875 77.609375 C167.51165697 77.61683457 169.48035261 77.62252884 171.4490509 77.62652588 C176.63272574 77.64180453 181.81595285 77.68110567 186.99945068 77.7253418 C192.28798363 77.76624635 197.57658886 77.7845266 202.86523438 77.8046875 C213.24368639 77.84759767 223.62180598 77.91587607 234 78 C234.16328957 79.56510216 234.32459964 81.13041089 234.48510742 82.69580078 C234.62017952 84.00328781 234.62017952 84.00328781 234.75798035 85.33718872 C237.47490035 115.22998932 229.21484554 144.27396364 210.59375 167.96484375 C191.85740932 189.88974843 166.93705966 205.35916092 137.85546875 208.7109375 C105.64813732 211.12567157 74.71859221 203.26086664 49.75 182.25 C43.13323737 176.50266114 37.17577469 170.07707968 32 163 C32 162.34 32 161.68 32 161 C31.34 161 30.68 161 30 161 C29.74734375 161.556875 29.4946875 162.11375 29.234375 162.6875 C18.51765104 182.76440058 -4.98415829 196.66113286 -25.9765625 203.38720703 C-56.25960364 212.55835004 -88.56354984 211.01557191 -116.875 196.1875 C-128.14414528 190.00066363 -137.69310955 181.77559159 -147 173 C-149.5572024 175.50717018 -151.94881863 178.07007269 -154.25 180.8125 C-160.04782048 187.38822512 -165.76951756 192.15901191 -173.5625 196.1875 C-174.47116821 196.66896484 -174.47116821 196.66896484 -175.39819336 197.16015625 C-191.53535613 205.11269466 -207.77621766 204.53390002 -225.37109375 204.390625 C-227.79821403 204.38473258 -230.22533942 204.38065883 -232.65246582 204.37841797 C-241.58088884 204.35757724 -250.50920253 204.30173237 -259.4375 204.25 C-279.423125 204.1675 -299.40875 204.085 -320 204 C-320 133.05 -320 62.1 -320 -11 C-301.664375 -11.0825 -283.32875 -11.165 -264.4375 -11.25 C-258.67466553 -11.28641602 -252.91183105 -11.32283203 -246.97436523 -11.36035156 C-239.8692627 -11.37841797 -239.8692627 -11.37841797 -236.52992249 -11.3817749 C-234.22638344 -11.38786711 -231.92285615 -11.40182997 -229.61940002 -11.42230225 C-213.2996464 -11.55993814 -198.60838763 -11.10099032 -183.8125 -3.4375 C-182.82552124 -2.93150269 -182.82552124 -2.93150269 -181.81860352 -2.4152832 C-168.74627455 4.64146075 -160.15625003 15.60110288 -154 29 C-151.20733964 26.2336855 -148.45906494 23.43775414 -145.7578125 20.58203125 C-129.61628784 3.70680092 -110.87318526 -7.61348197 -88 -13 C-86.85660156 -13.29777344 -85.71320313 -13.59554688 -84.53515625 -13.90234375 C-56.75380265 -20.4480047 -24.30984548 -14.88111978 0 0 Z " fill="#FDFEFE" transform="translate(443,304)"/>
<path d="M0 0 C16.7387431 -0.24065286 16.7387431 -0.24065286 23.94140625 -0.29296875 C28.83292288 -0.32866781 33.72375792 -0.3706339 38.61474609 -0.45263672 C42.56354422 -0.51841908 46.51161032 -0.5538278 50.46091461 -0.56926346 C51.95830034 -0.5802456 53.45565155 -0.60168828 54.95272064 -0.63438034 C65.60120439 -0.85740672 74.87910469 0.41155776 83.05755615 7.87857056 C88.35222018 13.56671094 89.5253729 19.22245829 89.375 26.86328125 C88.48564393 34.30237421 84.78712106 39.97812203 79.13671875 44.74609375 C70.73091158 49.67893489 62.5788158 49.39471081 53.125 49.29296875 C51.58944109 49.28736509 50.05387677 49.28309863 48.51831055 49.28010559 C44.50035479 49.2687173 40.48273062 49.23930299 36.46490479 49.20599365 C31.63152416 49.16972983 26.79803191 49.1561029 21.96455383 49.13863373 C14.64280613 49.10966111 7.32178424 49.05213296 0 49 C0 32.83 0 16.66 0 0 Z " fill="#16744F" transform="translate(170,419)"/>
<path d="M0 0 C7.51396175 -0.10520482 15.02521697 -0.20532616 22.53927612 -0.25875092 C26.03920384 -0.2850257 29.53851439 -0.3200635 33.03808594 -0.37719727 C37.06450976 -0.44251215 41.09029216 -0.46628893 45.1171875 -0.48828125 C46.97559769 -0.52699089 46.97559769 -0.52699089 48.87155151 -0.56648254 C57.45652467 -0.56922904 64.50120689 0.78780544 70.93795776 6.8144989 C76.48888973 12.80415892 77.57811713 18.58900477 77.44140625 26.63671875 C76.63253857 32.79986102 73.72713974 37.41318289 69.25390625 41.65625 C64.02186921 45.66475945 58.58244394 47.25581853 51.99462891 47.22705078 C50.83387848 47.22689972 49.67312805 47.22674866 48.47720337 47.22659302 C47.23949188 47.21627045 46.0017804 47.20594788 44.7265625 47.1953125 C42.80824112 47.19106766 42.80824112 47.19106766 40.85116577 47.18673706 C37.46779901 47.1774602 34.08470674 47.15952183 30.70141602 47.1373291 C27.24237469 47.11679041 23.78330406 47.10760832 20.32421875 47.09765625 C13.54932559 47.07733563 6.77491017 47.03818046 0 47 C0 31.49 0 15.98 0 0 Z " fill="#16744F" transform="translate(170,333)"/>
</svg>
