<?xml version="1.0" encoding="UTF-8"?>
<svg version="1.1" xmlns="http://www.w3.org/2000/svg" width="1200" height="1958">
<path d="M0 0 C1.49782786 -0.00165352 2.9956553 -0.00374155 4.49348202 -0.0062201 C8.59183239 -0.01174653 12.6901617 -0.01112178 16.78851458 -0.00944251 C21.25417563 -0.00870778 25.71983092 -0.01374284 30.18548948 -0.01801753 C39.0347729 -0.02557774 47.88405029 -0.02778958 56.73333662 -0.02834659 C67.33659417 -0.02926219 77.93984618 -0.03593556 88.54310134 -0.04269341 C114.16805556 -0.05873574 139.79300917 -0.06465472 165.41796751 -0.06944216 C177.54612675 -0.07177992 189.67428553 -0.07538277 201.80244441 -0.07913754 C243.33841646 -0.0919716 284.87438825 -0.10269081 326.41036224 -0.10614014 C329.01661987 -0.10636177 331.62287749 -0.10658355 334.22913511 -0.10680549 C336.84159703 -0.10702613 339.45405895 -0.10724661 342.06652087 -0.10746694 C347.30734678 -0.10790948 352.54817269 -0.1083566 357.7889986 -0.10880661 C359.73812149 -0.1089707 359.73812149 -0.1089707 361.72662059 -0.1091381 C403.84859606 -0.11276774 445.97055432 -0.12868504 488.09252319 -0.15199697 C532.65202745 -0.17661274 577.21152186 -0.19031379 621.77103311 -0.19150805 C626.66593572 -0.1916795 631.56083832 -0.19189493 636.45574093 -0.19214249 C637.66095695 -0.19219826 638.86617296 -0.19225402 640.10791068 -0.19231148 C659.47328289 -0.19346041 678.83863737 -0.20446894 698.20400361 -0.21902954 C717.68216057 -0.2334213 737.16029489 -0.23661642 756.63845571 -0.22858956 C768.19747366 -0.22414592 779.75641837 -0.22794309 791.31542664 -0.24382807 C799.05306704 -0.25362484 806.79065649 -0.2523553 814.5282965 -0.24239184 C818.9261706 -0.23703349 823.32390472 -0.23617941 827.72176685 -0.24890056 C874.19034199 -0.37452719 918.69360954 5.7294965 955.82342243 36.13142776 C956.62538044 36.78329056 956.62538044 36.78329056 957.44353962 37.4483223 C986.70777114 61.32623874 1006.97486857 92.73739222 1016.13592243 129.44392776 C1016.49967976 130.86294388 1016.49967976 130.86294388 1016.87078571 132.31062698 C1021.40404952 151.56178048 1021.11243659 171.46229424 1021.07510471 191.1130867 C1021.07608294 193.91105757 1021.08007756 196.70902245 1021.08391345 199.50699067 C1021.09065429 205.57836715 1021.09006945 211.64970763 1021.08454636 217.72108483 C1021.07631563 226.81015845 1021.07973149 235.89920321 1021.08531164 244.98827753 C1021.09448752 260.48353601 1021.09422341 275.97878134 1021.08874989 291.47404099 C1021.08323989 307.16832368 1021.0820927 322.86259773 1021.08622456 338.55688095 C1021.0864829 339.54957697 1021.08674125 340.54227298 1021.08700742 341.5650507 C1021.08807401 345.60840373 1021.08917143 349.65175675 1021.09030797 353.69510976 C1021.10087732 391.32315573 1021.10160817 428.9511959 1021.09601307 466.57924271 C1021.09584748 467.6934087 1021.09568189 468.8075747 1021.09551128 469.95550331 C1021.09534542 471.07145853 1021.09517956 472.18741375 1021.09500868 473.3371858 C1021.08996082 507.34572858 1021.08866022 541.35426897 1021.09105396 575.36281204 C1021.09120892 577.64084649 1021.09136323 579.91888093 1021.0915169 582.19691537 C1021.09213785 591.35156583 1021.09277518 600.50621628 1021.09343643 609.66086673 C1021.09527038 635.25134465 1021.09641163 660.84182259 1021.09700871 686.43230057 C1021.097036 687.59759615 1021.09706329 688.76289173 1021.09709141 689.9634993 C1021.09790987 727.09065299 1021.09565666 764.21780584 1021.09130955 801.34495926 C1021.0910988 803.15103632 1021.0910988 803.15103632 1021.0908838 804.99359979 C1021.08859394 824.54617993 1021.086155 844.09876006 1021.08370345 863.65134018 C1021.0739909 941.1974394 1021.0744417 1018.74353171 1021.08416462 1096.28963089 C1021.08660703 1115.83238601 1021.08902915 1135.37514113 1021.09130955 1154.91789627 C1021.09152089 1156.72291419 1021.09152089 1156.72291419 1021.09173651 1158.56439711 C1021.09604936 1195.6531165 1021.09787733 1232.74183532 1021.09700871 1269.83055496 C1021.09696795 1271.57721213 1021.09696795 1271.57721213 1021.09692638 1273.35915529 C1021.0963014 1298.92128003 1021.09503408 1324.48340471 1021.0931877 1350.04552939 C1021.09252943 1359.19195836 1021.09190326 1368.33838734 1021.09128628 1377.48481632 C1021.0911315 1379.76017551 1021.09097404 1382.0355347 1021.09081388 1384.31089388 C1021.08842742 1418.30971434 1021.09045819 1452.3085321 1021.09551128 1486.30735222 C1021.09575966 1487.97860122 1021.09575966 1487.97860122 1021.09601307 1489.68361282 C1021.09617843 1490.79572029 1021.0963438 1491.90782775 1021.09651417 1493.05363544 C1021.10203224 1530.57390483 1021.09999811 1568.09416727 1021.08945158 1605.61443567 C1021.08834689 1609.64494863 1021.08727348 1613.6754616 1021.08622456 1617.70597458 C1021.08596414 1618.69511994 1021.08570373 1619.6842653 1021.08543542 1620.70338476 C1021.08149347 1636.35414742 1021.08423411 1652.00490142 1021.08976257 1667.65566329 C1021.09505828 1683.05165912 1021.09318662 1698.44764036 1021.08373439 1713.84363434 C1021.078407 1722.86462117 1021.07849125 1731.88556798 1021.08669759 1740.90655287 C1021.09160518 1746.90682439 1021.08918998 1752.90706494 1021.08096388 1758.90733274 C1021.07650902 1762.30277456 1021.07614636 1765.69807271 1021.08259691 1769.09352067 C1021.11669817 1788.42057129 1020.99213043 1807.84913844 1016.19842243 1826.69392776 C1015.9397237 1827.7342012 1015.68102497 1828.77447464 1015.41448689 1829.84627151 C1009.70054923 1851.8609951 999.6806401 1872.13957686 985.82342243 1890.13142776 C985.11701618 1891.06213089 984.41060993 1891.99283401 983.68279743 1892.95174026 C955.8252912 1928.34109078 915.0663637 1950.04176064 870.59340382 1955.51509404 C857.26003207 1956.89974767 843.7723998 1956.54957467 830.38373703 1956.51683043 C825.86145014 1956.50914038 821.33919324 1956.51903134 816.81691074 1956.52656043 C808.910294 1956.53734182 801.00373883 1956.53710005 793.09711933 1956.52941895 C781.33930438 1956.51802778 769.58154095 1956.52389533 757.8237263 1956.53304387 C736.81902164 1956.54880994 715.81434443 1956.54748435 694.80963719 1956.53880713 C676.42771404 1956.53125098 658.04580092 1956.52929478 639.66387653 1956.53287506 C638.443051 1956.53310422 637.22222546 1956.53333337 635.96440521 1956.53356947 C631.00828 1956.53450353 626.05215479 1956.53545874 621.09602959 1956.53644876 C574.6339842 1956.5456192 528.17195625 1956.53731579 481.70991355 1956.52115807 C440.45998009 1956.50692199 399.21007441 1956.5081959 357.96014118 1956.52254105 C311.58134122 1956.53861602 265.20255667 1956.54496875 218.82375431 1956.53570426 C213.87682565 1956.53474215 208.92989699 1956.53380363 203.98296833 1956.53287506 C202.76496962 1956.53263783 201.54697091 1956.5324006 200.29206315 1956.53215618 C181.92478577 1956.52874834 163.55751955 1956.53272605 145.19024372 1956.54031372 C124.29917294 1956.54890113 103.40813381 1956.54672644 82.51706696 1956.53047149 C70.83496783 1956.52168092 59.1529373 1956.52106112 47.47083999 1956.53241001 C39.6565751 1956.53916215 31.84236492 1956.53490555 24.02810811 1956.52189571 C19.58335348 1956.51479546 15.13873461 1956.51224327 10.69398451 1956.52311365 C-33.1866107 1956.62238157 -74.71102391 1950.18044268 -110.17657757 1922.13142776 C-111.01704632 1921.49334183 -111.85751507 1920.85525589 -112.72345257 1920.19783401 C-147.30270416 1893.13803506 -168.97613561 1854.39822092 -175.81720257 1811.16267776 C-176.84251589 1802.5143828 -177.3219234 1793.99146722 -177.3030774 1785.28305238 C-177.30460395 1784.13375764 -177.3061305 1782.98446289 -177.3077033 1781.80034103 C-177.31091845 1778.62285381 -177.30969264 1775.44540495 -177.30655744 1772.26791884 C-177.30424437 1768.79338905 -177.30776699 1765.31886414 -177.31052426 1761.84433535 C-177.314571 1755.73553021 -177.31490702 1749.62673358 -177.31281831 1743.51792758 C-177.30970857 1734.37270362 -177.31235817 1725.22748746 -177.31611702 1716.08226406 C-177.32235181 1700.49533922 -177.32382297 1684.90841715 -177.32269955 1669.32149124 C-177.32157533 1653.52464649 -177.32260837 1637.72780409 -177.32627201 1621.9309597 C-177.32650166 1620.93336964 -177.32673132 1619.93577958 -177.32696793 1618.90795951 C-177.32790956 1614.8449449 -177.32886525 1610.78193029 -177.32983912 1606.71891569 C-177.33998548 1564.32593225 -177.34304518 1521.93295014 -177.34363123 1479.53996562 C-177.34369598 1474.97631351 -177.34376392 1470.41266139 -177.34383464 1465.84900928 C-177.34385164 1464.71654029 -177.34386865 1463.58407131 -177.34388617 1462.41728508 C-177.34429456 1437.32613834 -177.34648426 1412.23499186 -177.34899048 1387.14384526 C-177.35001883 1376.81341011 -177.35100886 1366.48297495 -177.35200673 1356.15253979 C-177.35211732 1355.01112742 -177.35222791 1353.86971505 -177.35234185 1352.69371443 C-177.35866638 1287.28066373 -177.36279092 1221.8676132 -177.3623333 1156.45456219 C-177.36231752 1154.00633492 -177.36230178 1151.55810765 -177.36228609 1149.10988038 C-177.36221271 1138.0562362 -177.36212454 1127.00259202 -177.36203221 1115.94894784 C-177.36199108 1111.01980616 -177.36195093 1106.09066448 -177.36191089 1101.1615228 C-177.3618905 1098.69439792 -177.36186948 1096.22727304 -177.36184783 1093.76014815 C-177.36116757 1015.74482731 -177.36848504 937.72951101 -177.38238811 859.71419144 C-177.38588911 840.05809372 -177.38935856 820.401996 -177.39265251 800.74589825 C-177.39285539 799.53560989 -177.39305826 798.32532153 -177.39326728 797.07835777 C-177.39948186 759.77859665 -177.40324776 722.4788359 -177.4045105 685.17907429 C-177.40455045 684.00807691 -177.4045904 682.83707953 -177.40463156 681.63059739 C-177.40548482 655.9248381 -177.40574604 630.21907884 -177.40546118 604.51331954 C-177.4053647 595.31540012 -177.40531266 586.11748069 -177.40528246 576.91956127 C-177.40527454 574.6313343 -177.40526434 572.34310733 -177.40525183 570.05488035 C-177.40507549 533.58923507 -177.41077447 497.12359366 -177.41940565 460.65794949 C-177.42805442 423.93131114 -177.43024784 387.20467817 -177.42364433 350.47803923 C-177.42273203 345.40259392 -177.42188875 340.32714859 -177.42108631 335.25170326 C-177.42092622 334.25678232 -177.42076614 333.26186138 -177.4206012 332.23679131 C-177.41824856 316.48571851 -177.42260492 300.73465501 -177.4297575 284.98358395 C-177.43665091 269.49385496 -177.43640122 254.0041397 -177.42856536 238.51441101 C-177.42418531 229.4348346 -177.42525238 220.35529868 -177.43443215 211.27572563 C-177.43998538 205.24038303 -177.43824215 199.20507054 -177.43064936 193.16973024 C-177.42655114 189.75185892 -177.426588 186.33413155 -177.43340005 182.91625514 C-177.46613992 165.30864044 -177.30227596 147.87548767 -172.98907757 130.69392776 C-172.66544231 129.38681839 -172.66544231 129.38681839 -172.33526897 128.05330276 C-166.56500147 105.60570337 -156.65299625 84.30583791 -142.17657757 66.13142776 C-141.73845745 65.58051468 -141.30033733 65.02960159 -140.84894085 64.46199417 C-115.05245878 32.38592194 -80.63494103 11.53569587 -40.36407757 3.31892776 C-39.35087444 3.11179153 -38.33767132 2.9046553 -37.29376507 2.69124222 C-24.91645878 0.31029638 -12.57352282 -0.01713789 0 0 Z " fill="#5988B6" transform="translate(179.1765775680542,1.8685722351074219)"/>
<path d="M0 0 C1.49782786 -0.00165352 2.9956553 -0.00374155 4.49348202 -0.0062201 C8.59183239 -0.01174653 12.6901617 -0.01112178 16.78851458 -0.00944251 C21.25417563 -0.00870778 25.71983092 -0.01374284 30.18548948 -0.01801753 C39.0347729 -0.02557774 47.88405029 -0.02778958 56.73333662 -0.02834659 C67.33659417 -0.02926219 77.93984618 -0.03593556 88.54310134 -0.04269341 C114.16805556 -0.05873574 139.79300917 -0.06465472 165.41796751 -0.06944216 C177.54612675 -0.07177992 189.67428553 -0.07538277 201.80244441 -0.07913754 C243.33841646 -0.0919716 284.87438825 -0.10269081 326.41036224 -0.10614014 C329.01661987 -0.10636177 331.62287749 -0.10658355 334.22913511 -0.10680549 C336.84159703 -0.10702613 339.45405895 -0.10724661 342.06652087 -0.10746694 C347.30734678 -0.10790948 352.54817269 -0.1083566 357.7889986 -0.10880661 C359.73812149 -0.1089707 359.73812149 -0.1089707 361.72662059 -0.1091381 C403.84859606 -0.11276774 445.97055432 -0.12868504 488.09252319 -0.15199697 C532.65202745 -0.17661274 577.21152186 -0.19031379 621.77103311 -0.19150805 C626.66593572 -0.1916795 631.56083832 -0.19189493 636.45574093 -0.19214249 C637.66095695 -0.19219826 638.86617296 -0.19225402 640.10791068 -0.19231148 C659.47328289 -0.19346041 678.83863737 -0.20446894 698.20400361 -0.21902954 C717.68216057 -0.2334213 737.16029489 -0.23661642 756.63845571 -0.22858956 C768.19747366 -0.22414592 779.75641837 -0.22794309 791.31542664 -0.24382807 C799.05306704 -0.25362484 806.79065649 -0.2523553 814.5282965 -0.24239184 C818.9261706 -0.23703349 823.32390472 -0.23617941 827.72176685 -0.24890056 C874.19034199 -0.37452719 918.69360954 5.7294965 955.82342243 36.13142776 C956.62538044 36.78329056 956.62538044 36.78329056 957.44353962 37.4483223 C986.70777114 61.32623874 1006.97486857 92.73739222 1016.13592243 129.44392776 C1016.49967976 130.86294388 1016.49967976 130.86294388 1016.87078571 132.31062698 C1021.40404952 151.56178048 1021.11243659 171.46229424 1021.07510471 191.1130867 C1021.07608294 193.91105757 1021.08007756 196.70902245 1021.08391345 199.50699067 C1021.09065429 205.57836715 1021.09006945 211.64970763 1021.08454636 217.72108483 C1021.07631563 226.81015845 1021.07973149 235.89920321 1021.08531164 244.98827753 C1021.09448752 260.48353601 1021.09422341 275.97878134 1021.08874989 291.47404099 C1021.08323989 307.16832368 1021.0820927 322.86259773 1021.08622456 338.55688095 C1021.0864829 339.54957697 1021.08674125 340.54227298 1021.08700742 341.5650507 C1021.08807401 345.60840373 1021.08917143 349.65175675 1021.09030797 353.69510976 C1021.10087732 391.32315573 1021.10160817 428.9511959 1021.09601307 466.57924271 C1021.09584748 467.6934087 1021.09568189 468.8075747 1021.09551128 469.95550331 C1021.09534542 471.07145853 1021.09517956 472.18741375 1021.09500868 473.3371858 C1021.08996082 507.34572858 1021.08866022 541.35426897 1021.09105396 575.36281204 C1021.09120892 577.64084649 1021.09136323 579.91888093 1021.0915169 582.19691537 C1021.09213785 591.35156583 1021.09277518 600.50621628 1021.09343643 609.66086673 C1021.09527038 635.25134465 1021.09641163 660.84182259 1021.09700871 686.43230057 C1021.097036 687.59759615 1021.09706329 688.76289173 1021.09709141 689.9634993 C1021.09790987 727.09065299 1021.09565666 764.21780584 1021.09130955 801.34495926 C1021.0910988 803.15103632 1021.0910988 803.15103632 1021.0908838 804.99359979 C1021.08859394 824.54617993 1021.086155 844.09876006 1021.08370345 863.65134018 C1021.0739909 941.1974394 1021.0744417 1018.74353171 1021.08416462 1096.28963089 C1021.08660703 1115.83238601 1021.08902915 1135.37514113 1021.09130955 1154.91789627 C1021.09152089 1156.72291419 1021.09152089 1156.72291419 1021.09173651 1158.56439711 C1021.09604936 1195.6531165 1021.09787733 1232.74183532 1021.09700871 1269.83055496 C1021.09696795 1271.57721213 1021.09696795 1271.57721213 1021.09692638 1273.35915529 C1021.0963014 1298.92128003 1021.09503408 1324.48340471 1021.0931877 1350.04552939 C1021.09252943 1359.19195836 1021.09190326 1368.33838734 1021.09128628 1377.48481632 C1021.0911315 1379.76017551 1021.09097404 1382.0355347 1021.09081388 1384.31089388 C1021.08842742 1418.30971434 1021.09045819 1452.3085321 1021.09551128 1486.30735222 C1021.09575966 1487.97860122 1021.09575966 1487.97860122 1021.09601307 1489.68361282 C1021.09617843 1490.79572029 1021.0963438 1491.90782775 1021.09651417 1493.05363544 C1021.10203224 1530.57390483 1021.09999811 1568.09416727 1021.08945158 1605.61443567 C1021.08834689 1609.64494863 1021.08727348 1613.6754616 1021.08622456 1617.70597458 C1021.08596414 1618.69511994 1021.08570373 1619.6842653 1021.08543542 1620.70338476 C1021.08149347 1636.35414742 1021.08423411 1652.00490142 1021.08976257 1667.65566329 C1021.09505828 1683.05165912 1021.09318662 1698.44764036 1021.08373439 1713.84363434 C1021.078407 1722.86462117 1021.07849125 1731.88556798 1021.08669759 1740.90655287 C1021.09160518 1746.90682439 1021.08918998 1752.90706494 1021.08096388 1758.90733274 C1021.07650902 1762.30277456 1021.07614636 1765.69807271 1021.08259691 1769.09352067 C1021.11669817 1788.42057129 1020.99213043 1807.84913844 1016.19842243 1826.69392776 C1015.9397237 1827.7342012 1015.68102497 1828.77447464 1015.41448689 1829.84627151 C1009.70054923 1851.8609951 999.6806401 1872.13957686 985.82342243 1890.13142776 C985.11701618 1891.06213089 984.41060993 1891.99283401 983.68279743 1892.95174026 C955.8252912 1928.34109078 915.0663637 1950.04176064 870.59340382 1955.51509404 C857.26003207 1956.89974767 843.7723998 1956.54957467 830.38373703 1956.51683043 C825.86145014 1956.50914038 821.33919324 1956.51903134 816.81691074 1956.52656043 C808.910294 1956.53734182 801.00373883 1956.53710005 793.09711933 1956.52941895 C781.33930438 1956.51802778 769.58154095 1956.52389533 757.8237263 1956.53304387 C736.81902164 1956.54880994 715.81434443 1956.54748435 694.80963719 1956.53880713 C676.42771404 1956.53125098 658.04580092 1956.52929478 639.66387653 1956.53287506 C638.443051 1956.53310422 637.22222546 1956.53333337 635.96440521 1956.53356947 C631.00828 1956.53450353 626.05215479 1956.53545874 621.09602959 1956.53644876 C574.6339842 1956.5456192 528.17195625 1956.53731579 481.70991355 1956.52115807 C440.45998009 1956.50692199 399.21007441 1956.5081959 357.96014118 1956.52254105 C311.58134122 1956.53861602 265.20255667 1956.54496875 218.82375431 1956.53570426 C213.87682565 1956.53474215 208.92989699 1956.53380363 203.98296833 1956.53287506 C202.76496962 1956.53263783 201.54697091 1956.5324006 200.29206315 1956.53215618 C181.92478577 1956.52874834 163.55751955 1956.53272605 145.19024372 1956.54031372 C124.29917294 1956.54890113 103.40813381 1956.54672644 82.51706696 1956.53047149 C70.83496783 1956.52168092 59.1529373 1956.52106112 47.47083999 1956.53241001 C39.6565751 1956.53916215 31.84236492 1956.53490555 24.02810811 1956.52189571 C19.58335348 1956.51479546 15.13873461 1956.51224327 10.69398451 1956.52311365 C-33.1866107 1956.62238157 -74.71102391 1950.18044268 -110.17657757 1922.13142776 C-111.01704632 1921.49334183 -111.85751507 1920.85525589 -112.72345257 1920.19783401 C-147.30270416 1893.13803506 -168.97613561 1854.39822092 -175.81720257 1811.16267776 C-176.84251589 1802.5143828 -177.3219234 1793.99146722 -177.3030774 1785.28305238 C-177.30460395 1784.13375764 -177.3061305 1782.98446289 -177.3077033 1781.80034103 C-177.31091845 1778.62285381 -177.30969264 1775.44540495 -177.30655744 1772.26791884 C-177.30424437 1768.79338905 -177.30776699 1765.31886414 -177.31052426 1761.84433535 C-177.314571 1755.73553021 -177.31490702 1749.62673358 -177.31281831 1743.51792758 C-177.30970857 1734.37270362 -177.31235817 1725.22748746 -177.31611702 1716.08226406 C-177.32235181 1700.49533922 -177.32382297 1684.90841715 -177.32269955 1669.32149124 C-177.32157533 1653.52464649 -177.32260837 1637.72780409 -177.32627201 1621.9309597 C-177.32650166 1620.93336964 -177.32673132 1619.93577958 -177.32696793 1618.90795951 C-177.32790956 1614.8449449 -177.32886525 1610.78193029 -177.32983912 1606.71891569 C-177.33998548 1564.32593225 -177.34304518 1521.93295014 -177.34363123 1479.53996562 C-177.34369598 1474.97631351 -177.34376392 1470.41266139 -177.34383464 1465.84900928 C-177.34385164 1464.71654029 -177.34386865 1463.58407131 -177.34388617 1462.41728508 C-177.34429456 1437.32613834 -177.34648426 1412.23499186 -177.34899048 1387.14384526 C-177.35001883 1376.81341011 -177.35100886 1366.48297495 -177.35200673 1356.15253979 C-177.35211732 1355.01112742 -177.35222791 1353.86971505 -177.35234185 1352.69371443 C-177.35866638 1287.28066373 -177.36279092 1221.8676132 -177.3623333 1156.45456219 C-177.36231752 1154.00633492 -177.36230178 1151.55810765 -177.36228609 1149.10988038 C-177.36221271 1138.0562362 -177.36212454 1127.00259202 -177.36203221 1115.94894784 C-177.36199108 1111.01980616 -177.36195093 1106.09066448 -177.36191089 1101.1615228 C-177.3618905 1098.69439792 -177.36186948 1096.22727304 -177.36184783 1093.76014815 C-177.36116757 1015.74482731 -177.36848504 937.72951101 -177.38238811 859.71419144 C-177.38588911 840.05809372 -177.38935856 820.401996 -177.39265251 800.74589825 C-177.39285539 799.53560989 -177.39305826 798.32532153 -177.39326728 797.07835777 C-177.39948186 759.77859665 -177.40324776 722.4788359 -177.4045105 685.17907429 C-177.40455045 684.00807691 -177.4045904 682.83707953 -177.40463156 681.63059739 C-177.40548482 655.9248381 -177.40574604 630.21907884 -177.40546118 604.51331954 C-177.4053647 595.31540012 -177.40531266 586.11748069 -177.40528246 576.91956127 C-177.40527454 574.6313343 -177.40526434 572.34310733 -177.40525183 570.05488035 C-177.40507549 533.58923507 -177.41077447 497.12359366 -177.41940565 460.65794949 C-177.42805442 423.93131114 -177.43024784 387.20467817 -177.42364433 350.47803923 C-177.42273203 345.40259392 -177.42188875 340.32714859 -177.42108631 335.25170326 C-177.42092622 334.25678232 -177.42076614 333.26186138 -177.4206012 332.23679131 C-177.41824856 316.48571851 -177.42260492 300.73465501 -177.4297575 284.98358395 C-177.43665091 269.49385496 -177.43640122 254.0041397 -177.42856536 238.51441101 C-177.42418531 229.4348346 -177.42525238 220.35529868 -177.43443215 211.27572563 C-177.43998538 205.24038303 -177.43824215 199.20507054 -177.43064936 193.16973024 C-177.42655114 189.75185892 -177.426588 186.33413155 -177.43340005 182.91625514 C-177.46613992 165.30864044 -177.30227596 147.87548767 -172.98907757 130.69392776 C-172.66544231 129.38681839 -172.66544231 129.38681839 -172.33526897 128.05330276 C-166.56500147 105.60570337 -156.65299625 84.30583791 -142.17657757 66.13142776 C-141.73845745 65.58051468 -141.30033733 65.02960159 -140.84894085 64.46199417 C-115.05245878 32.38592194 -80.63494103 11.53569587 -40.36407757 3.31892776 C-39.35087444 3.11179153 -38.33767132 2.9046553 -37.29376507 2.69124222 C-24.91645878 0.31029638 -12.57352282 -0.01713789 0 0 Z M-92.48712444 97.17146683 C-115.63831327 124.02952231 -119.65085206 155.83520247 -119.55410099 189.88819504 C-119.55556729 192.6861492 -119.56155838 195.48408984 -119.56731409 198.28203803 C-119.57743636 204.35959539 -119.57654024 210.43707185 -119.56826346 216.51463085 C-119.55592903 225.61294874 -119.56103615 234.71120164 -119.56941138 243.80952108 C-119.58318235 259.31966368 -119.58277554 274.82977672 -119.57456875 290.33992195 C-119.56630626 306.05117199 -119.56458096 321.76240258 -119.57078075 337.47365379 C-119.57116827 338.46710333 -119.57155579 339.46055286 -119.57195505 340.48410692 C-119.57355492 344.53047166 -119.57520105 348.57683636 -119.57690588 352.62320105 C-119.59276326 390.28684076 -119.59385468 427.95046744 -119.58546352 465.61410904 C-119.58521514 466.72952505 -119.58496675 467.84494105 -119.58471084 468.99415755 C-119.58446205 470.11136274 -119.58421326 471.22856794 -119.58395693 472.37962784 C-119.57638635 506.42079233 -119.57443369 540.46195145 -119.57802486 574.50311661 C-119.5782573 576.78298345 -119.57848877 579.06285029 -119.57871927 581.34271714 C-119.57965068 590.50463965 -119.58060668 599.66656216 -119.58159857 608.82848467 C-119.58434954 634.43958477 -119.58606138 660.05068489 -119.58695698 685.66178513 C-119.58699792 686.82803772 -119.58703885 687.99429032 -119.58708103 689.19588391 C-119.5883088 726.35574751 -119.58492854 763.51560924 -119.57840824 800.67547226 C-119.57819749 801.88065509 -119.57798675 803.08583792 -119.57776961 804.32754145 C-119.5743348 823.89872395 -119.5706764 843.46990641 -119.56699909 863.04108887 C-119.55243017 940.66186458 -119.55310638 1018.28262477 -119.56769085 1095.90340042 C-119.57135444 1115.46472802 -119.57498761 1135.02605563 -119.57840824 1154.58738327 C-119.57861959 1155.79185811 -119.57883093 1156.99633294 -119.57904868 1158.23730702 C-119.58551757 1195.35856173 -119.58825999 1232.47981515 -119.58695698 1269.6010704 C-119.58691622 1270.76646576 -119.58687547 1271.93186111 -119.58683348 1273.13257147 C-119.58589603 1298.71525459 -119.58399509 1324.29793758 -119.58122547 1349.88062057 C-119.58023805 1359.03433468 -119.57929881 1368.1880488 -119.57837334 1377.34176291 C-119.57814117 1379.61895237 -119.57790498 1381.89614182 -119.57766475 1384.17333128 C-119.57408446 1418.20512245 -119.57713235 1452.23690756 -119.58471084 1486.26869798 C-119.58495922 1487.38411399 -119.58520761 1488.49953 -119.58546352 1489.64874649 C-119.58571157 1490.76210333 -119.58595962 1491.87546018 -119.58621518 1493.02255511 C-119.59449071 1530.5779033 -119.59144425 1568.13323587 -119.57562129 1605.68858182 C-119.57396424 1609.72212178 -119.57235413 1613.75566175 -119.57078075 1617.78920174 C-119.57039013 1618.77909573 -119.56999951 1619.76898973 -119.56959706 1620.78888051 C-119.56368205 1636.45718081 -119.5677973 1652.12546166 -119.57608777 1667.7937602 C-119.58402757 1683.2036755 -119.58123072 1698.61355804 -119.56704551 1714.02346919 C-119.55904872 1723.05489827 -119.55919076 1732.08623743 -119.5714903 1741.11766219 C-119.57884328 1747.12232378 -119.57524202 1753.12691562 -119.56288974 1759.13156881 C-119.55619738 1762.53119868 -119.55568025 1765.93050501 -119.56533929 1769.33014891 C-119.66075831 1805.48532582 -112.95075883 1837.63299391 -87.53985882 1864.79939651 C-64.18828039 1887.84219374 -34.48222126 1898.49871301 -1.9536562 1898.38311005 C-0.45079316 1898.38520073 1.05206886 1898.38816649 2.55492866 1898.39191878 C6.66720743 1898.39966936 10.77939163 1898.3950668 14.89166876 1898.38836287 C19.37224021 1898.38327292 23.85279756 1898.38981586 28.33336699 1898.39484954 C36.18048852 1898.40206354 44.02758252 1898.40185954 51.87470531 1898.39675522 C63.54382826 1898.38918546 75.21292801 1898.39306026 86.8820508 1898.39917183 C107.72452177 1898.40970156 128.56698049 1898.40879117 149.40945263 1898.40301401 C167.65030465 1898.3979828 185.89115217 1898.39666954 204.13200474 1898.3990593 C205.94697916 1898.39928845 205.94697916 1898.39928845 207.79861973 1898.39952224 C212.71036293 1898.40014491 217.62210613 1898.40078171 222.53384933 1898.40144176 C268.61157029 1898.40755997 314.68928344 1898.40201264 360.7670032 1898.39124797 C401.69987629 1898.38175795 442.63273694 1898.38260499 483.56560993 1898.39216995 C529.55606643 1898.40288083 575.54651602 1898.40712487 621.5369736 1898.40094543 C626.44038526 1898.40030399 631.34379693 1898.39967831 636.2472086 1898.3990593 C638.05821983 1898.39882206 638.05821983 1898.39882206 639.90581714 1898.39858004 C658.13334249 1898.39630564 676.36086284 1898.39896465 694.58838749 1898.4040184 C715.31664386 1898.40973685 736.04488605 1898.40830743 756.77314065 1898.39745691 C768.37222478 1898.39158539 779.9712782 1898.39119949 791.57036153 1898.39874926 C799.32067244 1898.40323726 807.07095874 1898.40043701 814.821266 1898.39173973 C819.23537398 1898.38698771 823.649421 1898.38534396 828.06352703 1898.39255169 C832.08622075 1898.39905316 836.1087999 1898.39620906 840.1314854 1898.38619037 C841.57082125 1898.38419084 843.01016677 1898.38546879 844.44949485 1898.39060225 C875.95092966 1898.49490129 906.0672727 1889.52971859 928.85857868 1867.13142776 C929.84904235 1866.13358933 930.83739597 1865.13365111 931.82342243 1864.13142776 C932.72963337 1863.22392776 933.63584431 1862.31642776 934.56951618 1861.38142776 C949.32194424 1845.93291863 957.47115223 1826.76210966 961.82342243 1806.13142776 C961.99530655 1805.32874507 962.16719066 1804.52606238 962.34428339 1803.69905597 C963.00974499 1798.74408599 962.96115699 1793.85617955 962.95107293 1788.86212069 C962.95272371 1787.71467712 962.95437449 1786.56723354 962.95607529 1785.38501895 C962.95965494 1782.18939279 962.95874588 1778.99380371 962.95597351 1775.7981779 C962.95405242 1772.31263337 962.95793236 1768.82709449 962.9610703 1765.34155151 C962.96578778 1759.20555823 962.96676753 1753.069573 962.96534196 1746.9335782 C962.96322347 1737.74761827 962.96683042 1728.56166672 962.97155673 1719.37570808 C962.97943661 1703.7214357 962.9825191 1688.0671656 962.98300266 1672.41289139 C962.9835047 1656.54299623 962.98614801 1640.67310362 962.99141026 1624.8032093 C962.99174039 1623.80180162 962.99207052 1622.80039393 962.99241066 1621.76864056 C962.99376063 1617.69021673 962.99512329 1613.6117929 962.99650277 1609.53336908 C963.01281463 1561.22150936 963.01919253 1512.90965013 963.02395064 1464.59778812 C963.02633287 1440.54577263 963.03003615 1416.49375742 963.03398773 1392.44174214 C963.04665291 1315.31047742 963.05743684 1238.17921272 963.06082819 1161.04794699 C963.06099043 1157.36065207 963.06115599 1153.67335715 963.06132258 1149.98606223 C963.06165638 1142.59099672 963.06198686 1135.19593122 963.06231713 1127.80086571 C963.06270404 1119.14283568 963.06309364 1110.48480564 963.0634882 1101.82677561 C963.06360062 1099.34876659 963.06371203 1096.87075757 963.06382245 1094.39274856 C963.06737228 1014.79899083 963.0824519 935.20524214 963.10576019 855.61148786 C963.12249949 798.42654762 963.1379759 741.24160909 963.14249516 684.05666637 C963.14258864 682.88087719 963.14268213 681.70508801 963.14277845 680.49366886 C963.1447974 654.68331583 963.14595352 628.87296283 963.14630703 603.06260973 C963.14644321 593.82731505 963.1466522 584.59202037 963.14690028 575.35672569 C963.14696184 573.05916463 963.14702016 570.76160357 963.14707523 568.46404251 C963.14799541 531.83906608 963.15796795 495.21409906 963.17253272 458.58912573 C963.18714269 421.70290455 963.19219428 384.81669494 963.18411318 347.93047138 C963.18299778 342.83439953 963.18198713 337.73832767 963.18103886 332.64225578 C963.18084889 331.64327638 963.18065892 330.64429697 963.1804632 329.61504547 C963.17772852 313.79101159 963.18507481 297.96699906 963.19661222 282.14296983 C963.20774517 266.58650967 963.20819213 251.03007972 963.19724204 235.4736191 C963.19114201 226.35140571 963.19324993 217.22928348 963.20749401 208.10707867 C963.21613609 202.04727403 963.21387891 195.9875364 963.2027953 189.9277359 C963.19681792 186.4934734 963.19542153 183.05938949 963.20748016 179.62513892 C963.28769046 160.17971564 963.28769046 160.17971564 959.82342243 141.13142776 C959.63673605 140.3889026 959.45004967 139.64637743 959.25770612 138.8813515 C951.76498769 110.69269974 931.89278021 87.55170291 907.12029743 72.90095901 C886.99812304 61.45645584 865.04324315 57.96901931 842.14792442 58 C840.65574843 57.99834836 839.16357286 57.99626117 837.67139801 57.9937799 C833.57014674 57.98822934 829.4689164 57.9888827 825.36766258 57.99055749 C820.90592861 57.99128983 816.44420048 57.98626273 811.98246902 57.98198247 C803.13276324 57.97440844 794.28306349 57.97220971 785.4333548 57.97165341 C774.83319893 57.97073919 764.23304864 57.9640699 753.63289517 57.95730659 C728.01343675 57.94125044 702.39397893 57.9353438 676.77451639 57.93055784 C664.65392775 57.92822157 652.53333958 57.92461889 640.41275131 57.92086246 C598.91943931 57.90802746 557.42612758 57.8973081 515.93281364 57.89385986 C513.32835626 57.89363823 510.72389889 57.89341645 508.11944151 57.89319451 C505.50871072 57.89297387 502.89797993 57.89275339 500.28724915 57.89253306 C495.04971381 57.89209051 489.81217847 57.8916434 484.57464314 57.89119339 C482.62673835 57.8910293 482.62673835 57.8910293 480.63948196 57.8908619 C438.53185967 57.88723124 396.4242546 57.87131057 354.31663891 57.84800303 C309.79366473 57.8234036 265.2707004 57.80968698 220.74771923 57.80849195 C215.85963817 57.80832049 210.97155712 57.80810506 206.08347607 57.80785751 C204.87990096 57.80780174 203.67632586 57.80774598 202.43627879 57.80768852 C183.07282614 57.80653819 163.70939117 57.79551777 144.34594449 57.78097046 C124.88088023 57.76659974 105.41583862 57.76337174 85.9507705 57.77141044 C74.39009093 57.77586391 62.8294845 57.77201731 51.26881455 57.75617193 C43.54013571 57.74640954 35.81150801 57.74761222 28.08282962 57.75760816 C23.68344176 57.76299105 19.28419417 57.76373987 14.88481802 57.75109944 C-27.2979008 57.63764013 -63.06946799 64.88886995 -92.48712444 97.17146683 Z " fill="#004990" transform="translate(179.1765775680542,1.8685722351074219)"/>
<path d="M0 0 C43.32114278 -0.0689281 86.64227914 -0.12166089 129.96346606 -0.15319599 C135.09812134 -0.15694733 140.23277652 -0.16083037 145.36743164 -0.16479492 C146.38948825 -0.16558185 147.41154486 -0.16636878 148.46457288 -0.16717956 C164.93246964 -0.18017179 181.40033441 -0.20379085 197.86821231 -0.23145839 C214.81292492 -0.25968593 231.757621 -0.27621256 248.70235616 -0.28226548 C259.12661616 -0.28634631 269.55078572 -0.29915077 279.97501782 -0.3237494 C287.1596972 -0.33982181 294.34433103 -0.34435282 301.52902701 -0.34050413 C305.65103977 -0.33861529 309.77289657 -0.34114073 313.89488029 -0.35761642 C346.55457759 -0.48141896 378.71630381 2.02724408 411 7 C412.69525607 7.24908231 414.39056345 7.49781579 416.0859375 7.74609375 C463.47582948 14.90604442 509.82632483 34.90025013 544.39208984 68.44335938 C546.0672334 70.0650896 547.76204187 71.66467044 549.45703125 73.265625 C558.34324389 81.77753922 565.83792016 91.00921952 573 101 C573.4429541 101.6089209 573.8859082 102.2178418 574.34228516 102.84521484 C586.92920604 120.27735077 595.99688761 139.74276559 603 160 C603.59361328 161.64355469 603.59361328 161.64355469 604.19921875 163.3203125 C610.92692922 183.26411823 613.18723378 204.00680253 613.18530273 224.91040039 C613.18747492 227.53223265 613.20564148 230.15363322 613.22460938 232.77539062 C613.27372178 247.22073673 612.04497219 261.21724043 609.0625 275.375 C608.82756836 276.55255859 608.82756836 276.55255859 608.58789062 277.75390625 C601.59618604 311.90462265 586.75359237 344.7297592 565 372 C564.28328125 372.90878906 563.5665625 373.81757812 562.828125 374.75390625 C549.92872407 390.83241486 535.39999876 406.45752783 519 419 C518.43796875 419.43844238 517.8759375 419.87688477 517.296875 420.32861328 C497.22229553 435.97970769 475.47201407 450.00682301 452 460 C455.38508835 464.59012868 458.84770094 469.08651473 462.48876953 473.47631836 C474.42966615 487.88282673 485.09860409 503.1319266 495 519 C495.37012207 519.59248535 495.74024414 520.1849707 496.12158203 520.79541016 C498.82512192 525.15241579 501.42947064 529.56342094 504 534 C504.49306641 534.84933105 504.98613281 535.69866211 505.49414062 536.57373047 C535.02748918 587.72141906 559.9046828 643.74481387 574.91015625 700.9921875 C575.82276717 704.44318085 576.89564668 707.82120819 578.01586914 711.2097168 C585.67365408 734.44792352 591.03271016 758.50259049 596.34912109 782.36523438 C603.96606767 816.499703 616.22154093 846.53799795 640.51953125 872.30859375 C642.79154283 874.77381576 644.90570055 877.38212568 647 880 C583.31 880 519.62 880 454 880 C456.67121559 875.99317662 459.27475734 872.36010679 462.25 868.625 C488.71286116 833.31226396 489.10253464 787.72588621 483.20141602 745.89453125 C481.14061407 731.7804916 478.32779165 717.8707269 475 704 C474.78875488 703.09733398 474.57750977 702.19466797 474.35986328 701.26464844 C457.09729267 627.62399669 426.10188615 554.5280522 379 495 C378.11634766 493.55173828 378.11634766 493.55173828 377.21484375 492.07421875 C375.07234498 489.59080287 375.07234498 489.59080287 371.4375 490.0234375 C369.95128256 490.31508035 368.47207801 490.64379194 367 491 C366.195625 491.18208008 365.39125 491.36416016 364.5625 491.55175781 C362.73582891 491.97784515 360.91209302 492.41663273 359.09082031 492.86523438 C298.21728031 507.82877754 234.59282053 514.07801401 171.98901367 514.00708008 C171.11968956 514.00656898 170.25036545 514.00605789 169.35469818 514.00553131 C167.23646506 514.0042116 165.11823241 514.0021805 163 514 C163.05905428 547.8605402 163.13373673 581.72100572 163.22898628 615.5814628 C163.24025263 619.59125484 163.25139137 623.60104723 163.26245117 627.61083984 C163.2657567 628.80810973 163.2657567 628.80810973 163.269129 630.02956688 C163.30437151 642.90436377 163.32930895 655.77916061 163.35034702 668.65398765 C163.37221361 681.89336702 163.40536545 695.13268454 163.44870156 708.37201118 C163.47503271 716.52224576 163.49286395 724.67240347 163.49934604 732.82267839 C163.50465735 738.43371519 163.52106259 744.04465579 163.54566566 749.65564078 C163.5594875 752.87884387 163.56726327 756.10184576 163.56500816 759.32508278 C163.54891505 792.97936738 166.92553316 825.5842071 188 853 C188.54011719 853.72445312 189.08023438 854.44890625 189.63671875 855.1953125 C196.99888887 864.35630001 207.6377292 871.26136785 217.3046875 877.7578125 C218.14386719 878.37269531 218.14386719 878.37269531 219 879 C219 879.33 219 879.66 219 880 C147.06 880 75.12 880 1 880 C4.32091722 876.67908278 7.12951024 874.47513728 11 871.9375 C33.80598525 856.48233785 47.56049089 833.906999 53.07734263 806.98936474 C55.96665178 791.65636169 56.57562183 776.73756208 56.50146749 761.16386681 C56.48930307 757.64726065 56.50084673 754.13070821 56.50910914 750.61410153 C56.52037938 744.47630493 56.51707907 738.33865719 56.5037384 732.2008667 C56.48395493 723.07332224 56.48740566 713.94588495 56.495239 704.81832763 C56.50774157 689.45223536 56.50150049 674.08620473 56.48405075 658.72011948 C56.46677823 643.50619815 56.45701146 628.29230454 56.45738602 613.07837296 C56.45740131 612.12940887 56.4574166 611.18044478 56.45743235 610.2027242 C56.45751418 606.3499833 56.45764542 602.4972424 56.45784398 598.64450151 C56.45965344 562.55145111 56.43980753 526.45844281 56.40898465 490.36540701 C56.38173543 458.33913891 56.36926242 426.31290069 56.37060547 394.28662109 C56.37068629 392.22974359 56.37076701 390.1728661 56.37084763 388.1159886 C56.37088833 387.09907867 56.37092903 386.08216875 56.37097096 385.03444337 C56.37117257 379.91482258 56.37135374 374.79520178 56.37151146 369.67558098 C56.3715616 368.16035165 56.3715616 368.16035165 56.37161275 366.61451163 C56.37234402 339.80584947 56.3632559 312.99719104 56.35085833 286.18853199 C56.35041779 285.2342043 56.34997724 284.27987661 56.34952335 283.2966299 C56.34774703 279.45958185 56.34597018 275.6225338 56.34414144 271.78548577 C56.33783681 258.469036 56.3348049 245.15258917 56.33391846 231.83613801 C56.33272135 214.67204606 56.32467489 197.50797868 56.30505554 180.34389721 C56.29487114 171.27906382 56.28999147 162.21426642 56.29304791 153.1494276 C56.29452715 147.07982616 56.28863288 141.0102595 56.27696029 134.94066922 C56.27052095 131.49244195 56.26701538 128.04428954 56.27248149 124.59605883 C56.28625665 112.31138915 56.20623831 100.0896141 55.12781715 87.84510994 C55.05299621 86.9900817 54.97817526 86.13505346 54.90108701 85.25411528 C53.57088002 72.02285987 49.79069229 58.96191579 44 47 C43.48695313 45.93394531 42.97390625 44.86789062 42.4453125 43.76953125 C38.49764869 36.01064362 33.81417109 29.46470771 28 23 C27.38640625 22.30390625 26.7728125 21.6078125 26.140625 20.890625 C19.34313611 13.62835055 10.86801462 8.16764808 2.5703125 2.765625 C1.72210938 2.18296875 0.87390625 1.6003125 0 1 C0 0.67 0 0.34 0 0 Z " fill="#FEFEFE" transform="translate(176,486)"/>
<path d="M0 0 C1.50556302 -0.00269499 3.01112467 -0.00626373 4.51668379 -0.01062447 C8.65976452 -0.02007824 12.80275728 -0.01708318 16.94584232 -0.01206893 C21.45111929 -0.00880265 25.95637744 -0.01708455 30.4616484 -0.02388728 C38.35989292 -0.03419794 46.25811291 -0.03702922 54.15636349 -0.03497505 C65.90159243 -0.03192782 77.64679419 -0.04024293 89.39201785 -0.0507243 C111.58947051 -0.07007936 133.78691395 -0.0756931 155.98437405 -0.07683842 C173.12602999 -0.0777571 190.26768229 -0.08187165 207.40933704 -0.08823967 C212.34151949 -0.09003473 217.27370194 -0.09181436 222.2058844 -0.09358943 C224.04506579 -0.09425257 224.04506579 -0.09425257 225.92140236 -0.09492911 C260.41671998 -0.10723995 294.91203635 -0.11513 329.40735626 -0.11424255 C330.70826689 -0.1142114 332.00917751 -0.11418024 333.34950967 -0.11414814 C339.94322698 -0.11398192 346.5369443 -0.11378384 353.13066161 -0.11357872 C354.44022184 -0.11353883 355.74978207 -0.11349894 357.09902594 -0.11345784 C359.74727735 -0.11337697 362.39552876 -0.11329337 365.04378017 -0.11320706 C406.24437748 -0.1119816 447.44494186 -0.12699271 488.64552975 -0.15435219 C534.9234453 -0.18507055 581.20133923 -0.20228481 627.47926563 -0.20042574 C632.41364857 -0.20027648 637.3480315 -0.20017907 642.28241444 -0.20011711 C643.49740351 -0.2000938 644.71239259 -0.20007049 645.96419951 -0.20004648 C665.52077953 -0.19998492 685.07733098 -0.21275946 704.6339025 -0.22998164 C724.28835856 -0.24693205 743.9427728 -0.24891661 763.59723211 -0.235763 C775.27408941 -0.22836975 786.95081973 -0.23204305 798.62766359 -0.25164768 C806.42999162 -0.26364052 814.23222761 -0.26106429 822.03455141 -0.24670668 C826.47851114 -0.23893784 830.92222502 -0.23740874 835.36616749 -0.25362138 C839.41606445 -0.26826678 843.46551269 -0.26420471 847.51539026 -0.24577365 C848.96454448 -0.24235581 850.4137346 -0.24550601 851.86285208 -0.25637607 C871.79720388 -0.39578625 889.36301403 5.7575128 903.82301998 19.69818687 C910.23872795 26.40589989 915.12088491 34.56427143 918.31423092 43.25726891 C918.70610592 44.26789391 919.09798092 45.27851891 919.50173092 46.31976891 C938.15789612 113.76898154 921.31423092 186.27549424 921.31423092 256.25726891 C594.61423092 256.25726891 267.91423092 256.25726891 -68.68576908 256.25726891 C-68.68576908 39.0011682 -68.68576908 39.0011682 -49.89011478 19.26556969 C-35.78475462 5.1674691 -19.48022802 -0.06012412 0 0 Z " fill="#014A90" transform="translate(174.68576908111572,106.74273109436035)"/>
<path d="M0 0 C326.37 0 652.74 0 989 0 C989 207.42669588 989 207.42669588 983.3125 218.125 C982.95655762 218.81021729 982.60061523 219.49543457 982.23388672 220.20141602 C979.35055544 225.61584251 976.20587192 230.50557554 972 235 C971.30777344 235.74507812 970.61554687 236.49015625 969.90234375 237.2578125 C962.92390593 244.131399 954.83416377 248.04312965 946 252 C945.22269531 252.36222656 944.44539063 252.72445313 943.64453125 253.09765625 C934.60886869 256.18072575 925.61752801 256.2859556 916.15625286 256.25447559 C914.65798633 256.25686833 913.15972099 256.26013537 911.66145805 256.26419219 C907.54797157 256.27279644 903.43457657 256.2689923 899.32108873 256.26313647 C894.84444907 256.25896183 890.36782597 256.26637058 885.89119035 256.27228898 C878.04638357 256.28105136 870.2016029 256.28236295 862.35679245 256.27878571 C850.69116698 256.2734802 839.02556679 256.27957248 827.35994406 256.28786864 C805.3134717 256.30311601 783.26701082 256.30481295 761.22053429 256.30234561 C744.19713957 256.30051356 727.17374863 256.30227072 710.15035439 256.30657005 C707.70534688 256.30717245 705.26033938 256.30777365 702.81533188 256.30837366 C699.13102057 256.3092809 695.44670926 256.31018957 691.76239796 256.31110601 C657.50356383 256.31953669 623.24473113 256.32387043 588.98589611 256.31969929 C587.69416424 256.31954291 586.40243238 256.31938654 585.07155712 256.31922542 C578.52442482 256.31841963 571.97729253 256.31757386 565.43016025 256.31671212 C564.12985994 256.31654103 562.82955964 256.31636994 561.48985629 256.31619367 C558.86033288 256.31584702 556.23080947 256.31549849 553.60128606 256.31514808 C512.68234299 256.30979041 471.76342147 256.31772214 430.84448242 256.33618164 C384.88006877 256.35689295 338.91566847 256.36762603 292.9512499 256.36360615 C288.05119757 256.3632108 283.15114524 256.36284926 278.25109291 256.36250877 C277.04456089 256.36241804 275.83802888 256.36232731 274.59493528 256.36223383 C256.37330947 256.36106738 238.15169713 256.3677198 219.93007469 256.37832069 C199.20936951 256.39036314 178.48869402 256.39194266 157.76798841 256.37953053 C146.17070585 256.3728946 134.57349425 256.37454991 122.97621735 256.38811904 C115.22955398 256.3963525 107.48294388 256.39368034 99.73628485 256.38214377 C95.32254456 256.37587645 90.90894293 256.3743147 86.49521055 256.38600711 C82.47513108 256.39655866 78.45530751 256.39315441 74.43524166 256.37890258 C72.99461976 256.37618757 71.55397716 256.37842751 70.11337482 256.38640973 C58.14000499 256.44819278 46.68956461 255.06082227 35.9375 249.5 C35.27049072 249.15960693 34.60348145 248.81921387 33.91625977 248.46850586 C17.54955458 239.66951772 6.78864763 224.36594289 1 207 C-10.34366249 138.93802506 0 69.00080515 0 0 Z " fill="#014990" transform="translate(107,1598)"/>
<path d="M0 0 C188.81956027 0 188.81956027 0 219 8 C219.7528125 8.19319824 220.505625 8.38639648 221.28125 8.58544922 C249.14261688 15.8057722 274.06644616 29.25008814 295 49 C295.78761719 49.7115625 296.57523438 50.423125 297.38671875 51.15625 C327.46300215 79.44054872 341.90451247 122.40469472 343.21484375 162.85546875 C343.5156183 177.13780375 342.33545184 190.92121521 340 205 C339.86609863 205.85400391 339.73219727 206.70800781 339.59423828 207.58789062 C333.82138295 243.72246628 316.07370305 276.63657546 291 303 C290.47841309 303.55413574 289.95682617 304.10827148 289.41943359 304.67919922 C280.04664124 314.57876219 270.0944987 323.08863218 259 331 C258.38721191 331.44150391 257.77442383 331.88300781 257.14306641 332.33789062 C199.83143476 373.28150896 126.00849464 388.41630578 57 394 C55.18943115 394.1544458 55.18943115 394.1544458 53.34228516 394.31201172 C49.68761648 394.62009605 46.03195371 394.90793692 42.375 395.1875 C41.34189697 395.27161133 40.30879395 395.35572266 39.24438477 395.44238281 C26.13105494 396.36080294 13.22688987 396 0 396 C0 265.32 0 134.64 0 0 Z " fill="#004990" transform="translate(339,545)"/>
<path d="M0 0 C36.50477594 5.49622469 76.27941047 20.48978291 105 44 C105.89460937 44.70511719 106.78921875 45.41023437 107.7109375 46.13671875 C151.19835928 80.83943212 182.70102541 132.84287452 189.75390625 188.4921875 C192.06262981 209.75418222 192.38853865 231.84551239 189 253 C188.79866455 254.3001001 188.79866455 254.3001001 188.59326172 255.62646484 C186.8010948 266.97288599 184.57564758 277.97712175 180.76123047 288.83007812 C180.21657101 290.38265455 179.68297899 291.93913116 179.15673828 293.49804688 C170.3914596 319.45730379 157.86185223 343.27267997 140.31933594 364.40429688 C139.05185986 365.93727683 137.81046111 367.49170472 136.5703125 369.046875 C124.95322337 383.30585667 111.68905142 396.90411655 97 408 C96.03835938 408.76699219 95.07671875 409.53398438 94.0859375 410.32421875 C82.22151365 419.75371674 69.52902926 428.02744047 56.5 435.75 C55.77586914 436.18054687 55.05173828 436.61109375 54.30566406 437.0546875 C49.25133226 440 49.25133226 440 47 440 C50.87726208 444.92156763 54.79891321 449.79066547 58.88720703 454.53930664 C84.01977184 483.78259012 104.79090876 517.10268258 123 551 C123.51788086 551.96196289 124.03576172 552.92392578 124.56933594 553.91503906 C160.63641045 621.2697217 186.91685317 696.04681651 201.82470703 770.94165039 C205.91672642 791.35999204 212.62473314 811.88087454 223 830 C223.35416992 830.63534668 223.70833984 831.27069336 224.07324219 831.92529297 C230.69309476 843.7539704 238.79109513 853.72691237 247.95703125 863.7109375 C250.05855507 866.06560855 252.02840877 868.53551097 254 871 C189.65 871 125.3 871 59 871 C65.21153846 862.71794872 65.21153846 862.71794872 68.3125 859 C81.07471071 842.43448147 87.86442584 822.52595082 91 802 C91.17917969 800.87335937 91.35835937 799.74671875 91.54296875 798.5859375 C97.3518778 749.58930602 83.35078495 698.08606322 68 652 C67.64470215 650.91396484 67.2894043 649.82792969 66.92333984 648.70898438 C55.67436355 614.41169405 41.23236628 580.89199189 23.41015625 549.48925781 C22.0700638 547.12367911 20.7520563 544.74702278 19.4375 542.3671875 C8.59313683 522.95841935 -3.98021092 504.13230831 -17.72998047 486.66064453 C-19.00413866 484.9945884 -20.19477333 483.28947813 -21.37890625 481.55859375 C-24.93839624 476.2317701 -24.93839624 476.2317701 -30.390625 473.44921875 C-33.09528001 473.64058585 -35.38877063 474.26908584 -38 475 C-39.43883545 475.39131104 -39.43883545 475.39131104 -40.90673828 475.79052734 C-41.86821777 476.0530127 -42.82969727 476.31549805 -43.8203125 476.5859375 C-44.79500488 476.85196777 -45.76969727 477.11799805 -46.77392578 477.39208984 C-47.87583252 477.69300537 -47.87583252 477.69300537 -49 478 C-49.45737549 477.02466309 -49.91475098 476.04932617 -50.38598633 475.04443359 C-52.52474992 470.48635094 -54.66763565 465.93021479 -56.8125 461.375 C-57.19760742 460.55709991 -57.58271484 459.73919983 -57.97949219 458.89651489 C-63.13949802 447.94807206 -68.37070914 437.04810498 -73.86254883 426.26123047 C-74.26884521 425.46217285 -74.6751416 424.66311523 -75.09375 423.83984375 C-75.44115234 423.16300537 -75.78855469 422.48616699 -76.14648438 421.78881836 C-77 420 -77 420 -78 417 C-76.92407593 416.59442871 -76.92407593 416.59442871 -75.82641602 416.18066406 C-17.35791474 394.01048623 37.1376297 361.58451469 65 303 C67.66099376 296.84694797 69.97844464 290.57306829 72.20410156 284.25146484 C72.86036867 282.39499389 73.54721553 280.54936262 74.2421875 278.70703125 C76.47556258 272.56957804 77.88064071 266.32403891 79.1875 259.9375 C79.35475586 259.1220874 79.52201172 258.3066748 79.69433594 257.46655273 C88.46457042 212.29984515 80.87460039 162.00399961 55.62109375 123.26953125 C49.14393159 113.72272329 41.55733126 104.52936495 32.640625 97.1640625 C23.45144034 89.55249007 23.45144034 89.55249007 22.375 83.3125 C22.20861361 81.21120089 22.08596419 79.10612263 22 77 C19.53734558 50.30122224 11.12325193 24.31104684 0 0 Z " fill="#FEFEFE" transform="translate(790,610)"/>
<path d="M0 0 C0 17.16 0 34.32 0 52 C14.52 51.34 29.04 50.68 44 50 C49.30713064 59.28747862 54.21556281 68.31653009 58.625 78 C59.15867187 79.155 59.69234375 80.31 60.2421875 81.5 C63.01807861 87.53688941 65.73711314 93.59925802 68.3984375 99.6875 C68.89778809 100.82574219 69.39713867 101.96398438 69.91162109 103.13671875 C71 106 71 106 71 109 C53.27706907 110.22516136 35.5814285 111.15059884 17.8203125 111.56640625 C16.0755955 111.60947026 14.33088515 111.65280425 12.58618164 111.69641113 C8.39085727 111.80069871 4.19546188 111.9014063 0 112 C0.03609447 146.62491498 0.09318436 181.24972674 0.17792095 215.87455642 C0.18793684 219.97447606 0.19778124 224.0743961 0.20751953 228.17431641 C0.2094609 228.99044002 0.21140228 229.80656363 0.21340248 230.64741826 C0.24431321 243.81321486 0.26137245 256.97899409 0.27319422 270.14482009 C0.28566272 283.68253367 0.31329133 297.22015695 0.35461307 310.75781345 C0.37958659 319.09233 0.39312921 327.42669655 0.39142957 335.76125103 C0.39139952 341.49845734 0.40626716 347.23551235 0.43216428 352.97265953 C0.44662458 356.26888444 0.45294589 359.56454369 0.44580269 362.86083031 C0.37703122 399.51330311 6.90281781 433.23220977 33.10546875 460.1640625 C38.70560976 465.42841169 45.09219543 469.70827651 51.41259766 474.05297852 C52.13366699 474.54983154 52.85473633 475.04668457 53.59765625 475.55859375 C54.58004272 476.22846313 54.58004272 476.22846313 55.58227539 476.91186523 C56.28404907 477.45049194 56.28404907 477.45049194 57 478 C57 478.33 57 478.66 57 479 C-15.6 479 -88.2 479 -163 479 C-159.18521326 475.18521326 -156.14570539 472.59142615 -151.75 469.6875 C-135.54837886 458.66538447 -124.75452312 444.91688517 -117 427 C-116.27683594 425.34097656 -116.27683594 425.34097656 -115.5390625 423.6484375 C-108.37266469 405.45013032 -106.8542658 385.34193889 -106.84178162 365.97860718 C-106.83720842 364.46854798 -106.8322073 362.95849003 -106.82681805 361.44843352 C-106.81331382 357.32085687 -106.80584111 353.1932884 -106.79939139 349.06569552 C-106.79135331 344.6063789 -106.77766737 340.14707911 -106.76467896 335.68777466 C-106.74296436 327.968983 -106.72480163 320.2501896 -106.70907402 312.53138351 C-106.68632956 301.37138326 -106.65819316 290.21140168 -106.62875474 279.05141731 C-106.58113482 260.94362891 -106.53785552 242.83583287 -106.49731445 224.72802734 C-106.45793099 207.14143275 -106.41649796 189.55484494 -106.37231445 171.96826172 C-106.36959018 170.88362256 -106.36686591 169.79898341 -106.36405908 168.6814764 C-106.35037913 163.23998072 -106.33665895 157.79848515 -106.32291877 152.35698962 C-106.209042 107.23800726 -106.10221326 62.11901019 -106 17 C-103.91811308 16.67790704 -101.83614817 16.3563182 -99.75415039 16.03494263 C-98.59476456 15.85580385 -97.43537872 15.67666508 -96.24085999 15.49209785 C-92.64375649 14.94590736 -89.04616005 14.45536607 -85.4375 13.9921875 C-67.81698729 11.68113059 -50.30691109 8.94301509 -32.8125 5.8125 C-31.34961548 5.55131378 -31.34961548 5.55131378 -29.85717773 5.28485107 C-27.056499 4.78315841 -24.2565703 4.27754237 -21.45703125 3.76953125 C-20.63338577 3.62072006 -19.8097403 3.47190887 -18.96113586 3.31858826 C-14.25238145 2.45491155 -9.58760344 1.48037459 -4.929245 0.37528992 C-3 0 -3 0 0 0 Z " fill="#FDFEFE" transform="translate(531,1003)"/>
<path d="M0 0 C30.1152717 -0.2512166 60.23050734 -0.44574883 90.34659638 -0.56171862 C93.90619618 -0.57547555 97.46579391 -0.58971318 101.02539062 -0.60424805 C102.08831851 -0.60857617 102.08831851 -0.60857617 103.17271969 -0.61299173 C114.63008822 -0.66078984 126.08684645 -0.74748196 137.54385355 -0.84868076 C149.30956251 -0.95173554 161.074953 -1.01268571 172.84109473 -1.03497344 C179.44611796 -1.04868166 186.05000849 -1.08288184 192.65460968 -1.16303062 C198.87664033 -1.23792218 205.09672569 -1.26068261 211.31916428 -1.24418449 C213.59761264 -1.24720074 215.87612875 -1.2689508 218.15418625 -1.31126022 C237.14910631 -1.64662042 237.14910631 -1.64662042 243.61383033 3.7783739 C245.93207093 6.04016397 247.96908249 8.47992131 250 11 C252.17533933 13.22813678 254.34749491 15.41626008 256.66796875 17.4921875 C265.33557309 25.37993026 271.31229101 36.21532876 276.5625 46.5625 C276.89693115 47.21661865 277.2313623 47.8707373 277.57592773 48.54467773 C279.53802432 52.55507721 280.24182792 55.45096754 281 60 C242.06 60 203.12 60 163 60 C163 133.92 163 207.84 163 284 C138.16179987 293.19933338 114.80606644 300.17502826 89.1875 305.375 C88.32992096 305.55057434 87.47234192 305.72614868 86.58877563 305.90704346 C84.09614018 306.41375567 81.60139281 306.90820659 79.10546875 307.3984375 C78.01750504 307.61980377 78.01750504 307.61980377 76.90756226 307.84564209 C72.34786037 308.72200773 67.83621181 309.2071175 63.20405579 309.54605103 C61.45830245 309.67529685 61.45830245 309.67529685 59.67728138 309.8071537 C58.79377852 309.87079298 57.91027567 309.93443226 57 310 C56.99761165 308.91130521 56.99522329 307.82261042 56.99276257 306.70092487 C56.93379748 280.13072009 56.85781059 253.56060474 56.76428509 226.99049854 C56.71944402 214.14105363 56.68000277 201.29163572 56.65356445 188.44213867 C56.63048931 177.23402209 56.59698616 166.02599178 56.55129844 154.81794375 C56.52749387 148.89110132 56.50868186 142.96434364 56.50238609 137.03745461 C56.49627695 131.44206123 56.4760705 125.84688438 56.44572449 120.25157166 C56.43703662 118.21407267 56.43320209 116.17654527 56.43499184 114.13902855 C56.45324781 83.72560833 51.97897172 52.17303067 32 28 C31.32453125 27.16210938 30.6490625 26.32421875 29.953125 25.4609375 C22.06397987 16.16095984 12.4068368 8.99515399 1.73046875 3.15625 C1.15941406 2.7746875 0.58835937 2.393125 0 2 C0 1.34 0 0.68 0 0 Z " fill="#FDFDFE" transform="translate(368,601)"/>
<path d="M0 0 C1.35199975 1.14498278 2.68641638 2.31114048 4 3.5 C4.64839844 4.056875 5.29679688 4.61375 5.96484375 5.1875 C23.11195739 20.94247174 30.81286206 43.95395343 32.34765625 66.6953125 C32.9232148 91.46935428 26.50053397 115.961057 9.18652344 134.27124023 C-7.91990316 151.8819974 -28.65730495 161.25109199 -53.29931641 161.72973633 C-62.03570917 161.79683984 -70.42559301 161.2973056 -79 159.5 C-80.43279297 159.24283203 -80.43279297 159.24283203 -81.89453125 158.98046875 C-94.53618827 156.35736723 -106.3273636 149.96355685 -116 141.5 C-116.66 140.98179687 -117.32 140.46359375 -118 139.9296875 C-134.56333456 126.53667869 -143.05812291 105.08984895 -146 84.5 C-148.19964723 57.24485694 -142.84927487 31.73504892 -125 10.5 C-94.74121004 -23.74951518 -36.11426003 -27.21022695 0 0 Z " fill="#FCFDFE" transform="translate(515,162.5)"/>
<path d="M0 0 C18.16755153 14.20083722 29.78443672 34.79083678 32.72265625 57.625 C34.68292816 81.47957652 30.39093626 106.25471028 14.66015625 125.0625 C14.11230469 125.701875 13.56445312 126.34125 13 127 C12.56558594 127.5775 12.13117188 128.155 11.68359375 128.75 C0.58697201 143.05967341 -17.61662941 151.66356551 -35.20703125 154.33520508 C-58.47250457 157.25621192 -82.4165974 154.81746709 -102 141 C-106.25683277 137.59560267 -110.14330367 133.84573981 -114 130 C-114.7425 129.28070312 -115.485 128.56140625 -116.25 127.8203125 C-131.08423913 112.46455715 -136.42941117 91.07866372 -136.1875 70.3125 C-136.18685547 69.24966797 -136.18621094 68.18683594 -136.18554688 67.09179688 C-136.05348913 43.30672915 -127.49383609 23.0754241 -111 6 C-82.6625577 -21.63486108 -31.63219562 -22.11139412 0 0 Z " fill="#FCFDFE" transform="translate(497,1656)"/>
<path d="M0 0 C13.93548673 -0.04696688 27.87096097 -0.08197524 41.80651093 -0.10362434 C48.27875024 -0.11401973 54.75093602 -0.12810064 61.22314453 -0.15087891 C67.48014343 -0.1727596 73.73709114 -0.18460048 79.99412537 -0.18975449 C82.3700796 -0.19342309 84.74603132 -0.20058616 87.1219635 -0.21146011 C132.61914454 -0.41122825 132.61914454 -0.41122825 148.15625 14 C157.28091219 23.53322915 161.39270066 35.44289006 161.25 48.5 C161.25773438 49.20769531 161.26546875 49.91539062 161.2734375 50.64453125 C161.23122615 62.18933603 156.89717535 72.76055011 148.9921875 81.19140625 C141.55147414 87.94640681 132.37935985 90.94562633 123 94 C123.49628906 94.3403125 123.99257813 94.680625 124.50390625 95.03125 C125.18324219 95.5159375 125.86257813 96.000625 126.5625 96.5 C127.22378906 96.9640625 127.88507813 97.428125 128.56640625 97.90625 C135.21521899 103.62657685 139.72139007 110.37903096 143.9375 118 C144.45401123 118.91700684 144.97052246 119.83401367 145.50268555 120.77880859 C148.59729248 126.32028042 151.5240154 131.92419091 154.3125 137.625 C160.50032163 150.25480835 168.07507307 160.07507307 178 170 C161.5 170 145 170 128 170 C121.73812903 158.86778495 115.88349557 147.8170932 110.51782227 136.27099609 C102.75111842 118.64448204 102.75111842 118.64448204 89 106 C83.9958113 104.30450061 79.34652214 103.67435844 74.09765625 103.5859375 C73.3750914 103.56657135 72.65252655 103.5472052 71.9080658 103.5272522 C69.62632625 103.46802395 67.34453467 103.42130145 65.0625 103.375 C63.5045367 103.33676777 61.94659334 103.29771308 60.38867188 103.2578125 C56.59261219 103.16237025 52.79645378 103.07813332 49 103 C49.09425933 108.51378749 49.20050544 114.02717282 49.31738281 119.54052734 C49.35542907 121.41220954 49.39032222 123.2839588 49.421875 125.15576172 C49.46805969 127.86189592 49.52595977 130.56757788 49.5859375 133.2734375 C49.59748871 134.09677582 49.60903992 134.92011414 49.62094116 135.7684021 C49.82684973 144.05953543 51.17669348 151.82701548 54.5625 159.4375 C55.8150947 162.28836094 57.01499213 165.0449764 58 168 C58.99 168.33 59.98 168.66 61 169 C61 169.33 61 169.66 61 170 C41.2 170 21.4 170 1 170 C2.98 166.7 4.96 163.4 7 160 C8.14189556 157.08114555 9.07044107 154.46187548 9.83789062 151.46191406 C10.04407265 150.65840641 10.25025467 149.85489876 10.46268463 149.02704239 C13.00327627 138.01960858 12.67986735 126.84087075 12.59375 115.609375 C12.59203371 113.20623841 12.59210983 110.80309994 12.59387207 108.39996338 C12.59223075 103.39764146 12.57374791 98.39577414 12.54199219 93.39355469 C12.50223308 87.02027199 12.49796494 80.64757993 12.50545502 74.27419662 C12.50854077 69.3238597 12.49634866 64.3736526 12.47932434 59.42334747 C12.47235527 57.07449407 12.4691623 54.72562598 12.47001648 52.37676239 C12.45945066 33.27311693 12.09138325 15.85944452 0 0 Z " fill="#FDFDFE" transform="translate(177,149)"/>
<path d="M0 0 C14.4569737 -0.09390976 28.91389933 -0.16393874 43.37111664 -0.20724869 C50.08557666 -0.22777562 56.79981784 -0.25621529 63.51416016 -0.30175781 C70.00459292 -0.34550165 76.49482843 -0.36919713 82.98539734 -0.37950897 C85.4506897 -0.38684936 87.91597236 -0.40118208 90.38117981 -0.42292023 C125.48907762 -0.71993971 125.48907762 -0.71993971 138 10 C138.62132812 10.50144531 139.24265625 11.00289062 139.8828125 11.51953125 C147.1746399 18.00641666 152.22774572 28.44619953 153.21899414 38.14208984 C153.87444375 50.89804245 153.19898345 62.95985655 144.68359375 73.1953125 C137.10749362 81.31632935 128.37024115 87.24198392 117 88 C117 88.66 117 89.32 117 90 C117.680625 90.185625 118.36125 90.37125 119.0625 90.5625 C132.61664007 97.19537706 138.95691657 115.58826933 145.08056641 128.35864258 C151.32003636 141.18464937 158.95114328 151.95114328 169 162 C153.49 162 137.98 162 122 162 C113.02445473 146.29279577 113.02445473 146.29279577 110.18359375 140.203125 C109.55812801 138.88142271 108.93247155 137.55981066 108.30664062 136.23828125 C107.36690977 134.23702532 106.43024632 132.23441522 105.49731445 130.22998047 C97.01912541 111.89450592 97.01912541 111.89450592 81.77734375 99.3828125 C75.18111876 97.01370829 67.92808415 97.42175842 61 97.3125 C59.54293901 97.27927447 58.08590637 97.24478009 56.62890625 97.20898438 C53.08614526 97.1246807 49.54330765 97.05759148 46 97 C45.99458488 102.51026696 46.02928174 108.01847402 46.09765625 113.52832031 C46.11557518 115.39380917 46.12342964 117.25942802 46.12011719 119.125 C46.10305965 134.95439277 48.08665744 148.62998616 57 162 C38.52 162 20.04 162 1 162 C1.99 160.02 1.99 160.02 3 158 C4.019392 155.80055096 5.0172639 153.59106991 6 151.375 C6.515625 150.22773437 7.03125 149.08046875 7.5625 147.8984375 C10.70369179 140.01955158 11.29882353 131.91063943 11.29052734 123.51171875 C11.30060318 122.01671089 11.30060318 122.01671089 11.31088257 120.49150085 C11.32974951 117.22344863 11.33378165 113.95560318 11.3359375 110.6875 C11.34237536 108.39078694 11.34910444 106.09407468 11.35610962 103.79736328 C11.36805575 98.98940127 11.3717934 94.18151095 11.37060547 89.37353516 C11.37040292 83.25921161 11.39765088 77.1453562 11.43214989 71.03114319 C11.4545635 66.28657995 11.45843854 61.54212659 11.45738602 56.79751587 C11.45972236 54.54601435 11.46843273 52.29450887 11.48405075 50.0430603 C11.87397385 25.17543125 11.87397385 25.17543125 2 3 C1.34 2.01 0.68 1.02 0 0 Z " fill="#FDFEFE" transform="translate(178,1645)"/>
<path d="M0 0 C0 11.88 0 23.76 0 36 C-2.31 34.02 -4.62 32.04 -7 30 C-14.26928541 25.39522511 -21.65077517 22.0166081 -30 20 C-30.72034424 19.82170654 -31.44068848 19.64341309 -32.18286133 19.4597168 C-39.29941864 17.86221585 -46.22466775 17.63309269 -53.5 17.625 C-54.65886719 17.60050781 -55.81773437 17.57601562 -57.01171875 17.55078125 C-66.67899741 17.51801081 -75.46728866 19.42375853 -82.7109375 26.23828125 C-85.18590588 29.62073803 -85.43003073 32.91470811 -85 37 C-84.14334666 41.27547896 -82.41992322 44.0001374 -78.83203125 46.52661133 C-69.09830973 51.66999827 -58.91545464 53.45308934 -48.1875 55.5 C-28.08432379 59.3580243 -5.16300484 63.99673067 7.828125 81.45703125 C15.28184934 93.23463937 15.68276998 107.2762094 13.34765625 120.76953125 C8.99383492 136.22279409 0.42908237 146.98598511 -13.203125 155.07421875 C-17.33685602 157.27865518 -21.62938879 158.88012999 -26.0625 160.375 C-26.76930908 160.61355713 -27.47611816 160.85211426 -28.2043457 161.09790039 C-38.62889694 164.38355175 -49.04915365 165.36647343 -59.9375 165.3125 C-61.10974121 165.30831055 -62.28198242 165.30412109 -63.48974609 165.29980469 C-78.60785624 165.10664139 -111.4273552 164.5726448 -123 153 C-123.08865208 150.1156618 -123.11521296 147.25537842 -123.09765625 144.37109375 C-123.0962413 143.50686295 -123.09482635 142.64263214 -123.09336853 141.75221252 C-123.08775239 138.98060708 -123.07519719 136.2090812 -123.0625 133.4375 C-123.05748708 131.5631522 -123.05292381 129.68880315 -123.04882812 127.81445312 C-123.03777772 123.20960456 -123.0205023 118.60481579 -123 114 C-121.76022042 114.92812333 -120.52068647 115.85657477 -119.28125 116.78515625 C-118.54777344 117.33445801 -117.81429687 117.88375977 -117.05859375 118.44970703 C-115.56081132 119.57766225 -114.07391693 120.72011979 -112.59375 121.87109375 C-94.29338611 135.5622242 -72.36426637 138.74597123 -50 137 C-41.98206168 135.75866388 -33.51815829 133.2971924 -28 127 C-23.48107562 120.22161342 -23.2338013 113.99467856 -24 106 C-26.16121869 100.49871606 -29.87388216 98.64235929 -34.9765625 96.17578125 C-43.60359128 92.82082561 -52.09218353 91.26157731 -61.25 90.0625 C-79.980704 87.41657849 -100.30582531 83.44984963 -113 68 C-120.75973295 55.78314361 -122.30200704 44.22478461 -121 30 C-118.16856823 18.07751374 -109.77185467 8.10416734 -100 1 C-70.83246199 -16.4719971 -30.12888525 -15.06444263 0 0 Z " fill="#FCFDFE" transform="translate(1011,157)"/>
<path d="M0 0 C42.24 0 84.48 0 128 0 C128 11.55 128 23.1 128 35 C124.04 33.35 120.08 31.7 116 30 C107.26355066 28.08513192 98.84417096 27.66982308 89.921875 27.5859375 C87.98299408 27.55688828 87.98299408 27.55688828 86.00494385 27.5272522 C82.61198745 27.47651845 79.21899197 27.43658367 75.8258667 27.39910889 C72.34605756 27.35869477 68.86640024 27.30787501 65.38671875 27.2578125 C58.59120765 27.16079152 51.79580025 27.08080113 45 27 C45 40.2 45 53.4 45 67 C66.78 67 88.56 67 111 67 C110.01 75.25 109.02 83.5 108 92 C87.21 92 66.42 92 45 92 C45 106.52 45 121.04 45 136 C52.41003796 135.93199649 59.81919199 135.8610446 67.22877502 135.7644577 C70.68097617 135.72021865 74.1330677 135.6807037 77.58544922 135.65356445 C108.21670156 136.08045802 108.21670156 136.08045802 135 123 C133.64459082 136.05976607 131.85858119 148.98993167 130 162 C87.1 162 44.2 162 0 162 C2.64 156.72 5.28 151.44 8 146 C11.10560256 134.44854872 10.29019385 122.17198282 10.265625 110.28125 C10.26697466 107.97302205 10.2689177 105.66479437 10.27142334 103.35656738 C10.27436042 98.53537267 10.27012267 93.71425242 10.26074219 88.89306641 C10.24934861 82.74022747 10.25591568 76.58756308 10.26788712 70.43473053 C10.27514403 65.67326564 10.27280023 60.91184154 10.26763153 56.15037537 C10.26630562 53.88276651 10.26790527 51.61515384 10.27259064 49.34754944 C10.65762018 29.52220753 10.65762018 29.52220753 5.5625 10.5625 C5.15128906 9.61503906 4.74007812 8.66757813 4.31640625 7.69140625 C3.0246747 5.05044768 1.51258537 2.52097562 0 0 Z " fill="#FCFDFE" transform="translate(883,1645)"/>
<path d="M0 0 C1.4530957 -0.00580078 1.4530957 -0.00580078 2.93554688 -0.01171875 C12.41232009 0.00092538 21.5507562 0.58855779 30.75 2.9375 C32.65458984 3.41123047 32.65458984 3.41123047 34.59765625 3.89453125 C39.3950234 5.33786521 44.03603152 7.26441261 48.6875 9.125 C48.6875 20.675 48.6875 32.225 48.6875 44.125 C46.0475 42.145 43.4075 40.165 40.6875 38.125 C27.38625808 30.92848992 15.31945542 28.94681206 0.375 28.8125 C-1.22118164 28.76899414 -1.22118164 28.76899414 -2.84960938 28.72460938 C-15.76895159 28.62213747 -27.51908367 33.56436836 -37.0625 42.3125 C-49.70615774 55.84865123 -51.86688342 73.69506284 -51.58984375 91.328125 C-51.08928389 103.90936091 -45.82755608 118.22719193 -37.12890625 127.5390625 C-22.60792845 140.21759365 -6.79608081 142.22731881 11.6875 141.125 C27.51414149 139.54060427 40.62937225 134.07001717 53.6875 125.125 C53.27004453 137.35644527 51.02985426 149.14139188 48.6875 161.125 C19.74499761 171.64576596 -14.71104513 174.42631192 -43.3125 161.125 C-44.37855469 160.63257813 -45.44460938 160.14015625 -46.54296875 159.6328125 C-64.21063896 150.80953156 -77.2995779 136.76776137 -84.3125 118.125 C-86.02956329 112.54516734 -87.22048358 106.85515066 -88.3125 101.125 C-88.60060547 99.69414063 -88.60060547 99.69414063 -88.89453125 98.234375 C-91.76681078 76.86676276 -87.98676788 54.03332454 -75.375 36.25 C-74.03786021 34.52830685 -72.68481826 32.81878651 -71.3125 31.125 C-70.78140625 30.43019531 -70.2503125 29.73539063 -69.703125 29.01953125 C-56.25312484 12.34019937 -34.51593423 2.71334633 -13.55541992 0.30151367 C-9.04129503 -0.05373965 -4.52537404 -0.01785157 0 0 Z " fill="#FCFDFD" transform="translate(799.3125,1640.875)"/>
<path d="M0 0 C1.41813416 1.03254659 2.81488453 2.09517051 4.1875 3.1875 C4.86296875 3.71472656 5.5384375 4.24195313 6.234375 4.78515625 C17.28095488 14.525842 22.26250036 29.97052358 23.34277344 44.23828125 C24.31604176 61.58015316 21.67351386 80.4044986 10.19140625 94.09375 C1.16872703 103.5209548 -9.68161837 110.11654967 -22.9453125 110.42578125 C-43.46523177 110.80574806 -43.46523177 110.80574806 -51.8125 106.1875 C-53.09253906 105.53394531 -53.09253906 105.53394531 -54.3984375 104.8671875 C-65.19839675 98.93207476 -70.95612721 91.40046264 -75.8125 80.1875 C-76.1734375 79.36765625 -76.534375 78.5478125 -76.90625 77.703125 C-83.03185838 60.69928104 -81.94401375 35.69068596 -74.34204102 19.39208984 C-67.70981843 5.9772785 -57.70804749 -1.95507014 -43.66796875 -6.92578125 C-28.19378402 -10.48468696 -13.42084489 -8.27467633 0 0 Z " fill="#014990" transform="translate(486.8125,182.8125)"/>
<path d="M0 0 C20.79 0 41.58 0 63 0 C61.68 2.31 60.36 4.62 59 7 C58.37386354 17.64431987 68.93580189 29.02985277 74.8125 37.3125 C76.21991937 39.31428251 77.62616871 41.31688816 79.03125 43.3203125 C79.70800781 44.28485352 80.38476562 45.24939453 81.08203125 46.24316406 C84.12110729 50.61144902 87.07009234 55.03732569 89.9934082 59.48364258 C91.52161594 61.80422894 93.05718327 64.07366625 94.76171875 66.26953125 C96 68 96 68 96 70 C99.55830409 66.72045706 102.19730242 62.99702819 104.875 59 C105.84412231 57.57098359 106.81422322 56.1426305 107.78515625 54.71484375 C108.30094238 53.9554248 108.81672852 53.19600586 109.34814453 52.41357422 C112.86693915 47.27216075 116.46530935 42.18579068 120.05224609 37.09179688 C122.82652676 33.14208249 125.58487436 29.18152339 128.30078125 25.19140625 C128.77555908 24.4960376 129.25033691 23.80066895 129.73950195 23.08422852 C133.11131781 17.50894438 134.75088946 11.50770869 134 5 C133.01 3.35 132.02 1.7 131 0 C149.81 0 168.62 0 188 0 C185.525 1.98 185.525 1.98 183 4 C177.19743196 9.2918792 172.38355184 15.11676462 167.75 21.4375 C167.10305176 22.31003418 166.45610352 23.18256836 165.78955078 24.08154297 C160.7433522 30.91532481 155.82469592 37.83527597 150.95703125 44.796875 C147.87713607 49.19408094 144.72062006 53.53382169 141.5625 57.875 C136.4677517 64.89124417 131.46396568 71.96674586 126.69287109 79.20825195 C124.31969383 82.78330988 122.03488211 86.10642273 118.9609375 89.11328125 C111.06937632 97.21013377 111.09912841 106.15511632 111.125 116.9375 C111.12446625 117.66357452 111.1239325 118.38964905 111.12338257 119.13772583 C111.21631836 133.44116964 113.87365221 146.41630037 121 159 C121.33 159.66 121.66 160.32 122 161 C103.85 161 85.7 161 67 161 C67.66 159.68 68.32 158.36 69 157 C69.85359196 155.13413553 70.68514719 153.25810497 71.5 151.375 C71.9228125 150.41335938 72.345625 149.45171875 72.78125 148.4609375 C77.94992822 133.78321667 79.86657428 111.0286981 75.02294922 95.96044922 C72.65467043 91.27495213 69.38758032 87.58217492 65.73193359 83.85302734 C62.66526888 80.57194683 60.1967215 76.85958555 57.625 73.1875 C56.53573019 71.67963258 55.44456401 70.17313338 54.3515625 68.66796875 C50.85176666 63.81284975 47.42230826 58.90991831 44 54 C38.94374062 46.74661709 33.82502542 39.54348235 28.62646484 32.39135742 C26.12598768 28.95060547 23.64120876 25.50251939 21.2109375 22.01171875 C15.12944489 13.28938507 9.6323595 5.91446913 0 1 C0 0.67 0 0.34 0 0 Z " fill="#FDFDFE" transform="translate(526,1645)"/>
<path d="M0 0 C0.98613281 -0.01611328 1.97226562 -0.03222656 2.98828125 -0.04882812 C15.83400294 -0.05729039 26.37461123 4.20774267 35.9375 12.8125 C48.26217239 25.93553174 50.5659616 43.79396032 50.1015625 61.0390625 C49.30674928 76.71232172 44.51990166 91.48821437 32.75 102.3125 C21.46821522 111.21824586 9.0068758 114.6337894 -5.25 113.3125 C-18.05659077 111.39941669 -29.68621583 105.33828715 -37.93359375 95.25390625 C-46.61033876 83.11511834 -47.45553824 70.2326229 -47.5625 55.75 C-47.59150391 54.46802734 -47.62050781 53.18605469 -47.65039062 51.86523438 C-47.74710755 37.12706226 -44.2912326 24.04127294 -34.1484375 13.03125 C-29.10285004 8.2530965 -23.66740209 4.94475714 -17.25 2.3125 C-16.39277344 1.94511719 -15.53554688 1.57773438 -14.65234375 1.19921875 C-9.75753738 -0.07646557 -5.03743216 -0.01620795 0 0 Z " fill="#014A90" transform="translate(444.25,1669.6875)"/>
<path d="M0 0 C19.8 0 39.6 0 60 0 C58.02 3.3 56.04 6.6 54 10 C52.53937576 13.72115639 52.53937576 13.72115639 51.6875 17.25 C51.38199219 18.38953125 51.07648437 19.5290625 50.76171875 20.703125 C49.17433279 27.57365706 48.83375402 34.02672363 48.79467773 41.05419922 C48.78477814 42.15722885 48.77487854 43.26025848 48.76467896 44.39671326 C48.73316047 48.03268304 48.70834466 51.66866588 48.68359375 55.3046875 C48.6630159 57.82960342 48.6420192 60.35451595 48.62062073 62.87942505 C48.5711175 68.83970905 48.52583001 74.80001557 48.48259836 80.76034749 C48.43312406 87.54878015 48.37824391 94.33716578 48.32291877 101.12555289 C48.20928131 115.08365799 48.10240295 129.04180828 48 143 C53.83113904 142.90517846 59.66192381 142.79883214 65.49267578 142.68261719 C67.46885702 142.64475562 69.44509721 142.60983548 71.42138672 142.578125 C93.94146481 142.21250222 112.78101982 140.81265345 132 128 C131.52292071 142.24081688 129.10633848 155.78221529 127 170 C85.09 170 43.18 170 0 170 C2.97 165.545 2.97 165.545 6 161 C7.42248191 158.26971815 7.42248191 158.26971815 8.3125 155.8125 C8.61800781 155.03519531 8.92351563 154.25789062 9.23828125 153.45703125 C11.27634515 146.88296873 11.1600103 140.34076202 11.17700195 133.52539062 C11.18357315 132.3765741 11.19014435 131.22775757 11.19691467 130.04412842 C11.21659795 126.24816821 11.22830076 122.45224753 11.23828125 118.65625 C11.24235678 117.35531906 11.2464323 116.05438812 11.25063133 114.71403503 C11.26966395 108.53425565 11.28389591 102.35448802 11.2922433 96.174685 C11.30199214 89.07728026 11.32825768 81.98018934 11.36874419 74.88289499 C11.39907238 69.37431807 11.41372807 63.86583022 11.41702431 58.35717154 C11.4193569 55.07806703 11.43010793 51.79937163 11.45348549 48.52033997 C11.72686225 23.77949133 11.72686225 23.77949133 1 2 C0.67 1.34 0.34 0.68 0 0 Z " fill="#FCFDFD" transform="translate(571,149)"/>
<path d="M0 0 C19.8 0 39.6 0 60 0 C57.69 3.63 55.38 7.26 53 11 C51.44923973 14.52495478 51.44923973 14.52495478 50.625 17.75 C50.32851563 18.77609375 50.03203125 19.8021875 49.7265625 20.859375 C48.07985407 27.97740497 47.83568343 34.7937043 47.79467773 42.07592773 C47.78477814 43.16934982 47.77487854 44.26277191 47.76467896 45.389328 C47.73320415 48.9873949 47.7083621 52.58547497 47.68359375 56.18359375 C47.66301211 58.68466018 47.64201533 61.18572323 47.62062073 63.68678284 C47.57115009 69.58682687 47.52585265 75.48689129 47.48259836 81.38698393 C47.42823128 88.76779025 47.36734652 96.14854044 47.30664062 103.52929688 C47.19921201 116.68615967 47.0975521 129.84306046 47 143 C53.57982492 142.9066914 60.15931749 142.79927075 66.73876953 142.68261719 C68.97113998 142.64463309 71.20356529 142.60973053 73.43603516 142.578125 C103.37183438 142.63183155 103.37183438 142.63183155 129.390625 129.35546875 C131 128 131 128 132 128 C131.30615426 135.96553163 130.19471609 143.84582759 129 151.75 C128.73316406 153.53857422 128.73316406 153.53857422 128.4609375 155.36328125 C127.67934533 160.58361701 126.86784705 165.79291773 126 171 C84.42 171 42.84 171 0 171 C2.97 166.545 2.97 166.545 6 162 C12.6753686 148.26931782 11.71360115 133.32548354 11.62890625 118.42578125 C11.62973658 115.7669266 11.63214823 113.10811209 11.63621521 110.44926453 C11.64070705 104.90280531 11.62504453 99.35668655 11.59692383 93.81030273 C11.56483723 87.43325224 11.56491548 81.05681343 11.5821386 74.67971927 C11.59809537 68.49453977 11.59121487 62.3095807 11.57420158 56.12441063 C11.5690488 53.51432986 11.56946596 50.90423151 11.57574654 48.29415321 C11.60247467 30.52118198 11.00906721 17.18298503 1 2 C0.67 1.34 0.34 0.68 0 0 Z " fill="#FCFDFE" transform="translate(725,149)"/>
<path d="M0 0 C7.36526588 -0.06909735 14.7293941 -0.12876571 22.09472656 -0.16479492 C24.59704411 -0.17982434 27.09933557 -0.2002535 29.6015625 -0.22631836 C33.21100325 -0.26295878 36.82009383 -0.27978546 40.4296875 -0.29296875 C41.53738495 -0.30845261 42.6450824 -0.32393646 43.78634644 -0.33988953 C53.55681331 -0.34197745 63.43492 1.32394271 71 8 C75.91443008 13.71556588 76.74596004 19.52637904 76.41015625 26.9140625 C75.5884025 33.09678121 73.36974851 37.13900621 68.6875 41.25 C55.25065897 49.94722575 38.84823861 48.47986838 23.5625 48.25 C15.786875 48.1675 8.01125 48.085 0 48 C0 32.16 0 16.32 0 0 Z " fill="#044B91" transform="translate(225,177)"/>
<path d="M0 0 C11.26125 -0.0928125 11.26125 -0.0928125 22.75 -0.1875 C26.26672363 -0.22846802 26.26672363 -0.22846802 29.85449219 -0.27026367 C56.68105123 -0.45407851 56.68105123 -0.45407851 67 8 C72.19217808 13.59157639 72.34709946 18.30371041 72.28125 25.6953125 C71.79345172 31.42694226 69.76899776 35.07018426 65.9375 39.25 C59.13205608 43.30430702 51.09859874 46.13447 43.13964844 46.11352539 C42.17895447 46.11344986 41.2182605 46.11337433 40.22845459 46.11329651 C39.19915833 46.10813522 38.16986206 46.10297394 37.109375 46.09765625 C36.04962463 46.0962413 34.98987427 46.09482635 33.89801025 46.09336853 C30.51531138 46.08777382 27.13267885 46.07522225 23.75 46.0625 C21.45573012 46.05748432 19.16145921 46.05292153 16.8671875 46.04882812 C11.24474559 46.03865728 5.622447 46.0190807 0 46 C0 30.82 0 15.64 0 0 Z " fill="#064D92" transform="translate(223,1671)"/>
</svg>
