<?xml version="1.0" encoding="UTF-8"?>
<svg id="Layer_1" data-name="Layer 1" xmlns="http://www.w3.org/2000/svg" viewBox="0 0 18 18">
  <defs>
    <style>
      .cls-1 {
        fill: #fff;
      }

      .cls-2 {
        fill: #a2aab5;
      }

      .cls-3 {
        fill: #0b4e5a;
      }

      .cls-4 {
        fill: #e2b77e;
      }
    </style>
  </defs>
  <rect class="cls-1" x="0" width="17.98" height="17.98"/>
  <g>
    <circle class="cls-3" cx="9" cy="9" r="8"/>
    <g>
      <g>
        <g>
          <path class="cls-1" d="m4.34,6.91l-.64,1.69h.27l.15-.39h.78l.15.39h.27l-.64-1.69h-.33Zm-.14,1.06l.3-.81.3.81h-.6Z"/>
          <path class="cls-1" d="m5.72,7.02h-.22v.13c0,.09-.01.15-.03.19s-.07.06-.14.06h-.13v.22h.28v.68c0,.11.03.19.08.23s.13.07.24.07h.27v-.21h-.17c-.06,0-.1-.01-.12-.03-.02-.02-.04-.06-.04-.1v-.64h.33v-.22h-.33v-.38Z"/>
          <rect class="cls-1" x="6.23" y="6.91" width=".25" height="1.69"/>
          <path class="cls-1" d="m7.7,8.37s-.02-.05-.02-.09v-.47c0-.14-.04-.24-.13-.32s-.21-.11-.36-.11-.28.04-.37.12-.14.18-.15.31h.23c.01-.07.04-.13.08-.17s.11-.06.19-.06.15.02.19.06c.05.04.07.1.07.19v.06h-.34c-.15,0-.26.03-.34.1s-.12.16-.12.27c0,.08.02.14.05.2.04.06.08.1.15.13.06.03.14.05.22.05.09,0,.17-.02.24-.05.07-.03.12-.08.16-.14.02.05.06.09.11.12.05.03.11.04.18.04h.07v-.22h-.03s-.07,0-.08-.02Zm-.36-.03c-.06.06-.14.09-.25.09-.07,0-.13-.01-.17-.04s-.06-.07-.06-.13.02-.1.06-.13.09-.04.17-.04h.34v.03c0,.09-.03.17-.09.23Z"/>
          <path class="cls-1" d="m8.85,8.02c-.06-.06-.13-.09-.24-.11l-.29-.04c-.05,0-.09-.02-.12-.05-.03-.02-.04-.05-.04-.09,0-.05.02-.09.06-.11s.1-.04.17-.04c.08,0,.14.02.18.05.04.03.07.08.09.14h.23c-.02-.12-.07-.21-.15-.29-.08-.07-.2-.11-.34-.11s-.26.03-.35.1-.13.16-.13.27c0,.09.03.17.09.23s.15.1.27.11l.24.03c.06,0,.1.02.13.05.03.02.04.05.04.09,0,.05-.02.09-.07.12s-.11.04-.19.04c-.09,0-.17-.02-.22-.06s-.09-.09-.1-.16h-.23c.02.14.07.24.17.32.09.07.22.11.38.11.17,0,.29-.03.38-.1s.13-.16.13-.28c0-.09-.03-.16-.08-.22Z"/>
        </g>
        <path class="cls-1" d="m9.88,8.52c-.12-.07-.22-.18-.29-.31s-.11-.28-.11-.45.04-.32.11-.45c.07-.13.17-.24.29-.31.12-.07.27-.11.43-.11.13,0,.24.02.35.07s.19.12.26.21.11.19.14.31h-.27c-.03-.11-.08-.2-.17-.26-.09-.06-.19-.09-.32-.09-.11,0-.21.03-.3.08-.08.05-.15.13-.2.22s-.07.21-.07.33.02.24.07.33.11.17.2.22c.08.05.18.08.3.08.13,0,.23-.03.32-.1.09-.06.14-.15.17-.26h.27c-.02.12-.07.22-.14.31-.07.09-.16.16-.26.21-.11.05-.22.07-.35.07-.16,0-.3-.04-.43-.11Z"/>
        <path class="cls-1" d="m11.45,8.55c-.09-.05-.16-.13-.22-.22-.05-.09-.08-.2-.08-.32s.03-.23.08-.32.12-.17.22-.22c.09-.05.2-.08.31-.08s.22.03.31.08.16.13.22.22c.05.09.08.2.08.32s-.03.23-.08.32-.12.17-.22.22c-.09.05-.2.08-.31.08s-.22-.03-.31-.08Zm.57-.25c.06-.07.1-.18.1-.3s-.03-.23-.1-.3c-.06-.07-.15-.11-.26-.11s-.19.04-.26.11c-.06.07-.1.18-.1.3s.03.23.1.3c.06.07.15.11.26.11.11,0,.19-.04.26-.11Z"/>
        <path class="cls-1" d="m12.51,7.4h.24v.15c.05-.06.1-.1.17-.13s.14-.05.22-.05c.11,0,.2.03.29.08.08.05.15.13.2.22s.07.2.07.33-.02.23-.07.33c-.05.1-.11.17-.2.22-.08.05-.18.08-.29.08-.08,0-.15-.01-.21-.04-.06-.02-.12-.06-.17-.11v.6h-.25v-1.69Zm.84.91c.06-.07.09-.18.09-.31s-.03-.23-.09-.31c-.06-.07-.14-.11-.25-.11s-.19.04-.25.11c-.06.07-.09.18-.09.31s.03.23.09.31.15.11.25.11.19-.04.25-.11Z"/>
        <path class="cls-1" d="m14.08,8.56c-.09-.05-.16-.13-.21-.22-.05-.09-.07-.2-.07-.33s.03-.23.07-.33c.05-.09.12-.17.21-.22.09-.05.19-.08.31-.08.15,0,.28.04.38.12s.16.19.18.33h-.24c-.02-.07-.06-.13-.11-.17-.05-.04-.12-.06-.2-.06-.11,0-.19.04-.26.11s-.09.18-.09.31.03.23.09.31c.06.07.15.11.25.11.08,0,.15-.02.2-.06.05-.04.09-.09.11-.17h.24c-.03.14-.09.25-.19.33-.1.08-.22.11-.37.11-.12,0-.22-.02-.31-.07Z"/>
        <path class="cls-1" d="m15.33,8.55c-.09-.05-.16-.13-.22-.22-.05-.09-.08-.2-.08-.32s.03-.23.08-.32.12-.17.22-.22c.09-.05.2-.08.31-.08s.22.03.31.08.16.13.22.22c.05.09.08.2.08.32s-.03.23-.08.32-.12.17-.22.22c-.09.05-.2.08-.31.08s-.22-.03-.31-.08Zm.57-.25c.06-.07.1-.18.1-.3s-.03-.23-.1-.3c-.06-.07-.15-.11-.26-.11s-.19.04-.26.11c-.06.07-.1.18-.1.3s.03.23.1.3c.06.07.15.11.26.11.11,0,.19-.04.26-.11Z"/>
      </g>
      <g>
        <path class="cls-2" d="m2.21,10.39c-.15-.09-.26-.22-.34-.38s-.12-.34-.12-.55.04-.4.13-.56.21-.29.36-.39c.16-.09.33-.14.53-.14.22,0,.41.06.57.17.16.11.27.27.34.48h-.34c-.05-.11-.12-.2-.22-.26-.1-.06-.21-.09-.35-.09s-.27.03-.37.09-.19.16-.24.27-.09.26-.09.41.03.29.09.4.14.21.24.27.22.1.36.1c.12,0,.24-.03.33-.08.1-.05.17-.12.22-.19s.08-.15.08-.23v-.35h.31v1.12h-.3v-.29c-.05.07-.11.12-.18.17s-.14.08-.22.1c-.08.02-.17.04-.27.04-.2,0-.38-.05-.53-.14Z"/>
        <path class="cls-2" d="m3.96,8.99h.31v.2c.06-.07.12-.12.2-.16.07-.04.16-.05.26-.05h.06v.3h-.12c-.12,0-.22.04-.29.11-.07.07-.1.17-.1.3v.83h-.31v-1.52h0Z"/>
        <path class="cls-2" d="m5.16,10.44c-.12-.07-.21-.16-.27-.28s-.1-.26-.1-.41.03-.29.1-.41c.06-.12.16-.21.27-.28.12-.07.25-.1.4-.1s.28.03.4.1c.12.07.21.16.27.28s.1.26.1.41-.03.29-.1.41c-.06.12-.16.21-.27.28-.12.07-.25.1-.4.1-.15,0-.28-.04-.4-.1Zm.72-.31c.08-.09.12-.22.12-.38s-.04-.29-.12-.38-.19-.14-.32-.14-.24.05-.32.14-.12.22-.12.38.04.29.12.38c.08.09.19.14.32.14s.24-.05.32-.14Z"/>
        <path class="cls-2" d="m6.63,10.37c-.1-.11-.15-.26-.15-.44v-.95h.31v.9c0,.11.03.21.09.28s.14.1.24.1c.11,0,.2-.04.27-.11.07-.08.1-.18.1-.31v-.86h.31v1.52h-.31v-.17c-.06.07-.13.12-.2.15-.08.03-.16.05-.26.05-.18,0-.31-.05-.42-.16Z"/>
        <path class="cls-2" d="m8.06,8.99h.31v.19c.06-.07.13-.13.21-.17s.17-.06.27-.06c.14,0,.26.03.36.1.1.07.19.16.25.28.06.12.09.26.09.41s-.03.29-.09.41-.14.21-.25.28-.22.1-.36.1c-.09,0-.18-.02-.27-.05-.08-.03-.15-.07-.21-.14v.75h-.31v-2.12Zm1.05,1.14c.07-.09.11-.22.11-.38s-.04-.29-.11-.38c-.07-.09-.18-.14-.31-.14s-.24.05-.32.14c-.08.09-.11.22-.11.38s.04.29.11.38c.08.09.18.14.32.14s.23-.05.31-.14Z"/>
      </g>
      <rect class="cls-4" x="2.83" y="9.38" width=".37" height=".37"/>
    </g>
  </g>
</svg>
