<svg width="89" height="18" viewBox="0 0 89 18" fill="none" xmlns="http://www.w3.org/2000/svg"> <path d="M34.9985 5.72205e-06H31.025L24.9051 17.3827H28.4211L29.8441 13.1402H36.1849L37.6104 17.3827H41.1264L34.9985 5.72205e-06ZM30.7431 10.4592L33.0081 3.70595L35.284 10.4592H30.7431Z" fill="#FCFCFA"></path> <path d="M53.1979 11.0688C53.1979 11.7674 53.0434 12.3973 52.7389 12.9406C52.4349 13.4836 51.9956 13.9143 51.4338 14.221C50.8702 14.5286 50.1931 14.6849 49.4223 14.6849C48.6514 14.6849 47.9761 14.529 47.415 14.221C46.8555 13.9142 46.4163 13.4833 46.1095 12.9404C45.8022 12.3971 45.6464 11.7674 45.6464 11.069V0.000144958H42.3523V11.3293C42.3523 12.572 42.6478 13.6816 43.2306 14.6273C43.8137 15.5727 44.6454 16.3198 45.7028 16.8482C46.7575 17.3755 48.009 17.6432 49.4221 17.6432C50.8295 17.6432 52.0782 17.3757 53.1331 16.8482C54.19 16.3198 55.0231 15.5727 55.6093 14.6273C56.1952 13.6814 56.4923 12.572 56.4923 11.3293V0.000144958H53.1977V11.0688H53.1979Z" fill="#FCFCFA"></path> <path d="M67.7673 0H63.7938L57.6745 17.3827H61.1902L62.6131 13.1402H68.9539L70.3794 17.3827H73.8954L67.7673 0ZM63.5122 10.4592L65.7773 3.70594L68.053 10.4592H63.5122Z" fill="#FCFCFA"></path> <path d="M85.2529 10.5237C85.3355 10.4888 85.4163 10.4521 85.4952 10.4137C86.4142 9.96818 87.1209 9.32593 87.5958 8.50482C88.0693 7.68562 88.3091 6.70547 88.3091 5.5913C88.3091 4.48357 88.0721 3.49821 87.6047 2.6625C87.1361 1.82453 86.4368 1.16385 85.5263 0.698716C84.6183 0.235147 83.4843 0.000144958 82.155 0.000144958H75.6141V17.3827H78.9083V11.0818H81.9379L85.3191 17.3827H88.9999L85.2529 10.5237ZM78.9086 2.78174H81.6763C82.4381 2.78174 83.0674 2.8935 83.5462 3.1139C84.0194 3.33169 84.376 3.65255 84.6062 4.06763C84.8386 4.4867 84.9564 4.99928 84.9564 5.5913C84.9564 6.18315 84.8401 6.68704 84.6109 7.08908C84.3837 7.4873 84.0289 7.79426 83.5561 8.00093C83.0769 8.21073 82.4501 8.31693 81.6932 8.31693H78.9086V2.78174Z" fill="#FCFCFA"></path> <path fill-rule="evenodd" clip-rule="evenodd" d="M14.8808 4.96734V0.00123215H4.96611V4.96734H0V14.8998H4.96611V17.3829H17.3817V4.96734H14.8808ZM4.96611 4.96734H12.4154V12.4166H4.96611V4.96734Z" fill="#FCFCFA"></path> </svg>